LeckerliOne-Regular.ufo
<glyph name="ampersand" format="1">
  <advance width="580"/>
  <unicode hex="0026"/>
  <outline>
    <contour>
      <point x="408" y="533" type="curve" smooth="yes"/>
      <point x="423" y="515"/>
      <point x="436" y="508"/>
      <point x="444" y="508" type="curve" smooth="yes"/>
      <point x="454" y="508"/>
      <point x="462" y="523"/>
      <point x="462" y="546" type="curve" smooth="yes"/>
      <point x="462" y="649"/>
      <point x="363" y="704"/>
      <point x="264" y="704" type="curve" smooth="yes"/>
      <point x="167" y="704"/>
      <point x="70" y="650"/>
      <point x="70" y="536" type="curve" smooth="yes"/>
      <point x="70" y="465"/>
      <point x="94" y="412"/>
      <point x="143" y="378" type="curve"/>
      <point x="62" y="346"/>
      <point x="0" y="280"/>
      <point x="0" y="192" type="curve" smooth="yes"/>
      <point x="0" y="39"/>
      <point x="138" y="-12"/>
      <point x="276" y="-12" type="curve" smooth="yes"/>
      <point x="412" y="-12"/>
      <point x="547" y="66"/>
      <point x="547" y="257" type="curve" smooth="yes"/>
      <point x="547" y="279"/>
      <point x="545" y="301"/>
      <point x="541" y="324" type="curve"/>
      <point x="564" y="320"/>
      <point x="591" y="316"/>
      <point x="614" y="316" type="curve" smooth="yes"/>
      <point x="662" y="316"/>
      <point x="705" y="365"/>
      <point x="705" y="407" type="curve" smooth="yes"/>
      <point x="705" y="421"/>
      <point x="697" y="430"/>
      <point x="683" y="430" type="curve" smooth="yes"/>
      <point x="662" y="430"/>
      <point x="663" y="403"/>
      <point x="495" y="403" type="curve" smooth="yes"/>
      <point x="458" y="403"/>
      <point x="434" y="397"/>
      <point x="434" y="372" type="curve" smooth="yes"/>
      <point x="434" y="335"/>
      <point x="451" y="307"/>
      <point x="451" y="263" type="curve" smooth="yes"/>
      <point x="451" y="146"/>
      <point x="378" y="98"/>
      <point x="306" y="98" type="curve" smooth="yes"/>
      <point x="236" y="98"/>
      <point x="167" y="143"/>
      <point x="167" y="215" type="curve" smooth="yes"/>
      <point x="167" y="275"/>
      <point x="189" y="308"/>
      <point x="227" y="331" type="curve"/>
      <point x="243" y="327"/>
      <point x="259" y="324"/>
      <point x="275" y="324" type="curve" smooth="yes"/>
      <point x="316" y="324"/>
      <point x="375" y="335"/>
      <point x="375" y="371" type="curve" smooth="yes"/>
      <point x="375" y="404"/>
      <point x="333" y="422"/>
      <point x="288" y="422" type="curve" smooth="yes"/>
      <point x="276" y="422"/>
      <point x="265" y="422"/>
      <point x="255" y="421" type="curve"/>
      <point x="227" y="446"/>
      <point x="216" y="473"/>
      <point x="216" y="500" type="curve" smooth="yes"/>
      <point x="216" y="567"/>
      <point x="251" y="597"/>
      <point x="294" y="597" type="curve" smooth="yes"/>
      <point x="332" y="597"/>
      <point x="376" y="573"/>
    </contour>
  </outline>
</glyph>
<glyph name="quotesingle" format="1">
  <advance width="172"/>
  <unicode hex="0027"/>
  <outline>
    <contour>
      <point x="50" y="423" type="line"/>
      <point x="112" y="423" type="line"/>
      <point x="112" y="615" type="line"/>
      <point x="50" y="615" type="line"/>
    </contour>
  </outline>
</glyph>
<glyph name="slash" format="1">
  <advance width="461"/>
  <unicode hex="002F"/>
  <outline>
    <contour>
      <point x="123" y="37" type="line" smooth="yes"/>
      <point x="121" y="31"/>
      <point x="120" y="26"/>
      <point x="120" y="20" type="curve" smooth="yes"/>
      <point x="120" y="-6"/>
      <point x="147" y="-54"/>
      <point x="176" y="-54" type="curve" smooth="yes"/>
      <point x="179" y="-54"/>
      <point x="181" y="-53"/>
      <point x="182" y="-51" type="curve" smooth="yes"/>
      <point x="240" y="126"/>
      <point x="227" y="96"/>
      <point x="366" y="449" type="curve" smooth="yes"/>
      <point x="395" y="523"/>
      <point x="441" y="653"/>
      <point x="441" y="669" type="curve" smooth="yes"/>
      <point x="441" y="703"/>
      <point x="407" y="751"/>
      <point x="388" y="751" type="curve" smooth="yes"/>
      <point x="383" y="751"/>
      <point x="380" y="748"/>
      <point x="378" y="743" type="curve" smooth="yes"/>
    </contour>
  </outline>
</glyph>
<glyph name="two" format="1">
  <advance width="684"/>
  <unicode hex="0032"/>
  <outline>
    <contour>
      <point x="432" y="-3" type="curve" smooth="yes"/>
      <point x="567" y="-3"/>
      <point x="659" y="78"/>
      <point x="659" y="158" type="curve" smooth="yes"/>
      <point x="659" y="181"/>
      <point x="654" y="196"/>
      <point x="644" y="196" type="curve" smooth="yes"/>
      <point x="636" y="196"/>
      <point x="623" y="187"/>
      <point x="608" y="167" type="curve" smooth="yes"/>
      <point x="575" y="125"/>
      <point x="529" y="102"/>
      <point x="482" y="102" type="curve" smooth="yes"/>
      <point x="431" y="102"/>
      <point x="397" y="117"/>
      <point x="361" y="135" type="curve"/>
      <point x="463" y="243"/>
      <point x="572" y="418"/>
      <point x="572" y="573" type="curve" smooth="yes"/>
      <point x="572" y="689"/>
      <point x="488" y="753"/>
      <point x="345" y="753" type="curve" smooth="yes"/>
      <point x="200" y="753"/>
      <point x="120" y="647"/>
      <point x="120" y="578" type="curve" smooth="yes"/>
      <point x="120" y="571"/>
      <point x="125" y="562"/>
      <point x="133" y="562" type="curve" smooth="yes"/>
      <point x="187" y="562"/>
      <point x="184" y="657"/>
      <point x="320" y="657" type="curve" smooth="yes"/>
      <point x="377" y="657"/>
      <point x="415" y="622"/>
      <point x="415" y="561" type="curve" smooth="yes"/>
      <point x="415" y="438"/>
      <point x="338" y="304"/>
      <point x="274" y="207" type="curve"/>
      <point x="254" y="182" type="line"/>
      <point x="222" y="192"/>
      <point x="183" y="198"/>
      <point x="133" y="198" type="curve" smooth="yes"/>
      <point x="56" y="198"/>
      <point x="0" y="164"/>
      <point x="0" y="95" type="curve" smooth="yes"/>
      <point x="0" y="29"/>
      <point x="38" y="-17"/>
      <point x="120" y="-17" type="curve" smooth="yes"/>
      <point x="190" y="-17"/>
      <point x="243" y="10"/>
      <point x="279" y="49" type="curve"/>
      <point x="325" y="22"/>
      <point x="376" y="-3"/>
    </contour>
    <contour>
      <point x="131" y="61" type="curve" smooth="yes"/>
      <point x="115" y="61"/>
      <point x="97" y="69"/>
      <point x="97" y="89" type="curve" smooth="yes"/>
      <point x="97" y="109"/>
      <point x="114" y="119"/>
      <point x="133" y="119" type="curve" smooth="yes"/>
      <point x="151" y="119"/>
      <point x="170" y="112"/>
      <point x="191" y="102" type="curve"/>
      <point x="168" y="77"/>
      <point x="148" y="61"/>
    </contour>
  </outline>
</glyph>
<glyph name="five" format="1">
  <advance width="626"/>
  <unicode hex="0035"/>
  <outline>
    <contour>
      <point x="398" y="767" type="curve" smooth="yes"/>
      <point x="234" y="767"/>
      <point x="122" y="700"/>
      <point x="122" y="651" type="curve" smooth="yes"/>
      <point x="122" y="645"/>
      <point x="127" y="641"/>
      <point x="135" y="641" type="curve" smooth="yes"/>
      <point x="149" y="641"/>
      <point x="167" y="642"/>
      <point x="188" y="644" type="curve"/>
      <point x="154" y="566"/>
      <point x="131" y="459"/>
      <point x="122" y="389" type="curve"/>
      <point x="128" y="367"/>
      <point x="154" y="352"/>
      <point x="175" y="345" type="curve"/>
      <point x="192" y="345"/>
      <point x="205" y="350"/>
      <point x="212" y="360" type="curve"/>
      <point x="225" y="360"/>
      <point x="238" y="361"/>
      <point x="249" y="361" type="curve" smooth="yes"/>
      <point x="356" y="361"/>
      <point x="381" y="284"/>
      <point x="381" y="209" type="curve" smooth="yes"/>
      <point x="381" y="131"/>
      <point x="332" y="74"/>
      <point x="228" y="74" type="curve" smooth="yes"/>
      <point x="139" y="74"/>
      <point x="93" y="155"/>
      <point x="41" y="155" type="curve" smooth="yes"/>
      <point x="28" y="155"/>
      <point x="20" y="149"/>
      <point x="20" y="137" type="curve" smooth="yes"/>
      <point x="20" y="71"/>
      <point x="117" y="-22"/>
      <point x="250" y="-22" type="curve" smooth="yes"/>
      <point x="420" y="-22"/>
      <point x="547" y="55"/>
      <point x="547" y="218" type="curve" smooth="yes"/>
      <point x="547" y="395"/>
      <point x="424" y="456"/>
      <point x="285" y="456" type="curve" smooth="yes"/>
      <point x="267" y="456"/>
      <point x="251" y="454"/>
      <point x="236" y="452" type="curve"/>
      <point x="257" y="535"/>
      <point x="279" y="602"/>
      <point x="292" y="657" type="curve"/>
      <point x="335" y="662"/>
      <point x="379" y="667"/>
      <point x="416" y="667" type="curve" smooth="yes"/>
      <point x="442" y="667"/>
      <point x="551" y="660"/>
      <point x="568" y="660" type="curve" smooth="yes"/>
      <point x="587" y="660"/>
      <point x="596" y="671"/>
      <point x="603" y="697" type="curve" smooth="yes"/>
      <point x="607" y="713"/>
      <point x="616" y="737"/>
      <point x="616" y="745" type="curve" smooth="yes"/>
      <point x="616" y="760"/>
      <point x="610" y="764"/>
      <point x="600" y="764" type="curve" smooth="yes"/>
      <point x="571" y="764"/>
      <point x="472" y="767"/>
    </contour>
  </outline>
</glyph>
<glyph name="six" format="1">
  <advance width="714"/>
  <unicode hex="0036"/>
  <outline>
    <contour>
      <point x="460" y="753" type="curve" smooth="yes"/>
      <point x="231" y="753"/>
      <point x="96" y="511"/>
      <point x="94" y="305" type="curve"/>
      <point x="62" y="289"/>
      <point x="40" y="270"/>
      <point x="40" y="256" type="curve" smooth="yes"/>
      <point x="40" y="247"/>
      <point x="44" y="238"/>
      <point x="53" y="238" type="curve" smooth="yes"/>
      <point x="67" y="238"/>
      <point x="81" y="242"/>
      <point x="96" y="248" type="curve"/>
      <point x="115" y="64"/>
      <point x="233" y="-9"/>
      <point x="358" y="-9" type="curve" smooth="yes"/>
      <point x="535" y="-9"/>
      <point x="669" y="85"/>
      <point x="669" y="238" type="curve" smooth="yes"/>
      <point x="669" y="346"/>
      <point x="590" y="450"/>
      <point x="435" y="450" type="curve" smooth="yes"/>
      <point x="372" y="450"/>
      <point x="311" y="436"/>
      <point x="253" y="410" type="curve"/>
      <point x="273" y="535"/>
      <point x="343" y="657"/>
      <point x="452" y="657" type="curve" smooth="yes"/>
      <point x="545" y="657"/>
      <point x="600" y="630"/>
      <point x="625" y="630" type="curve" smooth="yes"/>
      <point x="636" y="630"/>
      <point x="641" y="635"/>
      <point x="641" y="650" type="curve" smooth="yes"/>
      <point x="641" y="695"/>
      <point x="580" y="753"/>
    </contour>
    <contour>
      <point x="403" y="358" type="curve" smooth="yes"/>
      <point x="490" y="358"/>
      <point x="535" y="306"/>
      <point x="535" y="240" type="curve" smooth="yes"/>
      <point x="535" y="173"/>
      <point x="480" y="116"/>
      <point x="397" y="116" type="curve" smooth="yes"/>
      <point x="317" y="116"/>
      <point x="252" y="185"/>
      <point x="247" y="320" type="curve"/>
      <point x="300" y="346"/>
      <point x="346" y="358"/>
    </contour>
  </outline>
</glyph>
<glyph name="seven" format="1">
  <advance width="599"/>
  <unicode hex="0037"/>
  <outline>
    <contour>
      <point x="306" y="767" type="curve" smooth="yes"/>
      <point x="142" y="767"/>
      <point x="30" y="700"/>
      <point x="30" y="651" type="curve" smooth="yes"/>
      <point x="30" y="645"/>
      <point x="35" y="641"/>
      <point x="43" y="641" type="curve" smooth="yes"/>
      <point x="102" y="641"/>
      <point x="236" y="667"/>
      <point x="324" y="667" type="curve" smooth="yes"/>
      <point x="335" y="667"/>
      <point x="360" y="666"/>
      <point x="387" y="664" type="curve"/>
      <point x="365" y="612"/>
      <point x="329" y="530"/>
      <point x="294" y="443" type="curve"/>
      <point x="172" y="427"/>
      <point x="65" y="383"/>
      <point x="65" y="331" type="curve" smooth="yes"/>
      <point x="65" y="325"/>
      <point x="70" y="321"/>
      <point x="78" y="321" type="curve" smooth="yes"/>
      <point x="116" y="321"/>
      <point x="186" y="332"/>
      <point x="254" y="339" type="curve"/>
      <point x="219" y="244"/>
      <point x="192" y="155"/>
      <point x="192" y="102" type="curve" smooth="yes"/>
      <point x="192" y="25"/>
      <point x="217" y="-5"/>
      <point x="301" y="-5" type="curve" smooth="yes"/>
      <point x="319" y="-5"/>
      <point x="341" y="1"/>
      <point x="341" y="23" type="curve" smooth="yes"/>
      <point x="341" y="94"/>
      <point x="371" y="219"/>
      <point x="408" y="345" type="curve"/>
      <point x="449" y="343"/>
      <point x="500" y="340"/>
      <point x="511" y="340" type="curve" smooth="yes"/>
      <point x="530" y="340"/>
      <point x="539" y="351"/>
      <point x="546" y="377" type="curve" smooth="yes"/>
      <point x="550" y="393"/>
      <point x="559" y="417"/>
      <point x="559" y="425" type="curve" smooth="yes"/>
      <point x="559" y="454"/>
      <point x="514" y="444"/>
      <point x="438" y="446" type="curve"/>
      <point x="505" y="664" type="line"/>
      <point x="519" y="673"/>
      <point x="532" y="707"/>
      <point x="532" y="732" type="curve" smooth="yes"/>
      <point x="532" y="750"/>
      <point x="526" y="764"/>
      <point x="508" y="764" type="curve" smooth="yes"/>
      <point x="479" y="764"/>
      <point x="380" y="767"/>
    </contour>
  </outline>
</glyph>
<glyph name="colon" format="1">
  <advance width="469"/>
  <unicode hex="003A"/>
  <outline>
    <contour>
      <point x="359" y="374" type="curve"/>
      <point x="333" y="442"/>
      <point x="274" y="492"/>
      <point x="213" y="492" type="curve" smooth="yes"/>
      <point x="178" y="492"/>
      <point x="165" y="472"/>
      <point x="165" y="444" type="curve" smooth="yes"/>
      <point x="165" y="372"/>
      <point x="217" y="307"/>
      <point x="272" y="307" type="curve" smooth="yes"/>
      <point x="310" y="307"/>
      <point x="342" y="338"/>
    </contour>
    <contour>
      <point x="150" y="38" type="curve"/>
      <point x="167" y="2"/>
      <point x="199" y="-29"/>
      <point x="237" y="-29" type="curve" smooth="yes"/>
      <point x="292" y="-29"/>
      <point x="344" y="36"/>
      <point x="344" y="108" type="curve" smooth="yes"/>
      <point x="344" y="136"/>
      <point x="331" y="156"/>
      <point x="296" y="156" type="curve" smooth="yes"/>
      <point x="235" y="156"/>
      <point x="176" y="106"/>
    </contour>
  </outline>
</glyph>
<glyph name="semicolon" format="1">
  <advance width="439"/>
  <unicode hex="003B"/>
  <outline>
    <contour>
      <point x="135" y="374" type="curve"/>
      <point x="152" y="338"/>
      <point x="184" y="307"/>
      <point x="222" y="307" type="curve" smooth="yes"/>
      <point x="277" y="307"/>
      <point x="329" y="372"/>
      <point x="329" y="444" type="curve" smooth="yes"/>
      <point x="329" y="472"/>
      <point x="316" y="492"/>
      <point x="281" y="492" type="curve" smooth="yes"/>
      <point x="220" y="492"/>
      <point x="161" y="442"/>
    </contour>
    <contour>
      <point x="139" y="60" type="curve" smooth="yes"/>
      <point x="139" y="36"/>
      <point x="144" y="9"/>
      <point x="173" y="-10" type="curve"/>
      <point x="155" y="-61"/>
      <point x="90" y="-56"/>
      <point x="90" y="-94" type="curve" smooth="yes"/>
      <point x="90" y="-115"/>
      <point x="118" y="-121"/>
      <point x="136" y="-121" type="curve" smooth="yes"/>
      <point x="236" y="-121"/>
      <point x="326" y="4"/>
      <point x="326" y="97" type="curve" smooth="yes"/>
      <point x="326" y="147"/>
      <point x="294" y="165"/>
      <point x="258" y="165" type="curve" smooth="yes"/>
      <point x="196" y="165"/>
      <point x="139" y="123"/>
    </contour>
  </outline>
</glyph>
<glyph name="at" format="1">
  <advance width="931"/>
  <unicode hex="0040"/>
  <outline>
    <contour>
      <point x="242" y="245" type="curve" smooth="yes"/>
      <point x="242" y="399"/>
      <point x="378" y="502"/>
      <point x="505" y="502" type="curve" smooth="yes"/>
      <point x="639" y="502"/>
      <point x="716" y="401"/>
      <point x="716" y="293" type="curve" smooth="yes"/>
      <point x="716" y="253"/>
      <point x="689" y="199"/>
      <point x="659" y="199" type="curve" smooth="yes"/>
      <point x="640" y="199"/>
      <point x="639" y="280"/>
      <point x="639" y="320" type="curve"/>
      <point x="645" y="331"/>
      <point x="662" y="350"/>
      <point x="662" y="362" type="curve" smooth="yes"/>
      <point x="662" y="394"/>
      <point x="634" y="422"/>
      <point x="609" y="422" type="curve" smooth="yes"/>
      <point x="591" y="422"/>
      <point x="576" y="408"/>
      <point x="567" y="392" type="curve"/>
      <point x="553" y="399"/>
      <point x="528" y="401"/>
      <point x="511" y="401" type="curve" smooth="yes"/>
      <point x="396" y="401"/>
      <point x="329" y="285"/>
      <point x="329" y="186" type="curve" smooth="yes"/>
      <point x="329" y="123"/>
      <point x="372" y="82"/>
      <point x="433" y="82" type="curve" smooth="yes"/>
      <point x="495" y="82"/>
      <point x="530" y="110"/>
      <point x="553" y="149" type="curve"/>
      <point x="563" y="117"/>
      <point x="580" y="95"/>
      <point x="609" y="95" type="curve" smooth="yes"/>
      <point x="713" y="95"/>
      <point x="809" y="212"/>
      <point x="809" y="333" type="curve" smooth="yes"/>
      <point x="809" y="483"/>
      <point x="669" y="559"/>
      <point x="545" y="559" type="curve" smooth="yes"/>
      <point x="328" y="559"/>
      <point x="120" y="432"/>
      <point x="120" y="215" type="curve" smooth="yes"/>
      <point x="120" y="53"/>
      <point x="273" y="-87"/>
      <point x="502" y="-87" type="curve" smooth="yes"/>
      <point x="672" y="-87"/>
      <point x="846" y="-12"/>
      <point x="846" y="124" type="curve" smooth="yes"/>
      <point x="846" y="132"/>
      <point x="844" y="158"/>
      <point x="827" y="158" type="curve" smooth="yes"/>
      <point x="779" y="158"/>
      <point x="699" y="-14"/>
      <point x="529" y="-14" type="curve" smooth="yes"/>
      <point x="378" y="-14"/>
      <point x="242" y="97"/>
    </contour>
    <contour>
      <point x="464" y="153" type="curve" smooth="yes"/>
      <point x="434" y="153"/>
      <point x="427" y="178"/>
      <point x="427" y="204" type="curve" smooth="yes"/>
      <point x="427" y="288"/>
      <point x="488" y="339"/>
      <point x="549" y="354" type="curve"/>
      <point x="543" y="333"/>
      <point x="540" y="310"/>
      <point x="540" y="287" type="curve" smooth="yes"/>
      <point x="540" y="265"/>
      <point x="540" y="242"/>
      <point x="542" y="220" type="curve"/>
      <point x="525" y="172"/>
      <point x="492" y="153"/>
    </contour>
  </outline>
</glyph>
<glyph name="C" format="1">
  <advance width="549"/>
  <unicode hex="0043"/>
  <outline>
    <contour>
      <point x="346" y="0" type="move" name="bottom"/>
    </contour>
    <contour>
      <point x="156" y="741" type="curve" smooth="yes"/>
      <point x="146" y="741"/>
      <point x="136" y="732"/>
      <point x="136" y="719" type="curve" smooth="yes"/>
      <point x="136" y="692"/>
      <point x="156" y="649"/>
      <point x="186" y="613" type="curve"/>
      <point x="105" y="513"/>
      <point x="60" y="375"/>
      <point x="60" y="249" type="curve" smooth="yes"/>
      <point x="60" y="89"/>
      <point x="166" y="-8"/>
      <point x="346" y="-8" type="curve" smooth="yes"/>
      <point x="486" y="-8"/>
      <point x="629" y="68"/>
      <point x="629" y="198" type="curve" smooth="yes"/>
      <point x="629" y="221"/>
      <point x="624" y="236"/>
      <point x="614" y="236" type="curve" smooth="yes"/>
      <point x="606" y="236"/>
      <point x="593" y="227"/>
      <point x="578" y="207" type="curve" smooth="yes"/>
      <point x="525" y="139"/>
      <point x="436" y="104"/>
      <point x="363" y="104" type="curve" smooth="yes"/>
      <point x="264" y="104"/>
      <point x="217" y="171"/>
      <point x="217" y="287" type="curve" smooth="yes"/>
      <point x="217" y="365"/>
      <point x="242" y="464"/>
      <point x="288" y="540" type="curve"/>
      <point x="346" y="517"/>
      <point x="399" y="508"/>
      <point x="445" y="508" type="curve" smooth="yes"/>
      <point x="552" y="508"/>
      <point x="618" y="563"/>
      <point x="618" y="633" type="curve" smooth="yes"/>
      <point x="618" y="729"/>
      <point x="547" y="756"/>
      <point x="465" y="756" type="curve" smooth="yes"/>
      <point x="379" y="756"/>
      <point x="305" y="724"/>
      <point x="244" y="672" type="curve"/>
      <point x="209" y="694"/>
      <point x="181" y="741"/>
    </contour>
    <contour>
      <point x="458" y="657" type="curve" smooth="yes"/>
      <point x="491" y="657"/>
      <point x="507" y="645"/>
      <point x="507" y="618" type="curve" smooth="yes"/>
      <point x="507" y="595"/>
      <point x="485" y="585"/>
      <point x="453" y="585" type="curve" smooth="yes"/>
      <point x="420" y="585"/>
      <point x="376" y="589"/>
      <point x="336" y="602" type="curve"/>
      <point x="370" y="636"/>
      <point x="411" y="657"/>
    </contour>
  </outline>
</glyph>
<glyph name="D" format="1">
  <advance width="770"/>
  <unicode hex="0044"/>
  <outline>
    <contour>
      <point x="237" y="519" type="curve" smooth="yes"/>
      <point x="192" y="420"/>
      <point x="144" y="280"/>
      <point x="130" y="163" type="curve"/>
      <point x="85" y="175"/>
      <point x="49" y="185"/>
      <point x="31" y="185" type="curve" smooth="yes"/>
      <point x="21" y="185"/>
      <point x="15" y="179"/>
      <point x="15" y="173" type="curve" smooth="yes"/>
      <point x="15" y="144"/>
      <point x="62" y="102"/>
      <point x="126" y="66" type="curve"/>
      <point x="129" y="14"/>
      <point x="145" y="-9"/>
      <point x="215" y="-9" type="curve" smooth="yes"/>
      <point x="230" y="-9"/>
      <point x="248" y="-4"/>
      <point x="253" y="10" type="curve"/>
      <point x="290" y="-1"/>
      <point x="326" y="-8"/>
      <point x="357" y="-8" type="curve" smooth="yes"/>
      <point x="630" y="-8"/>
      <point x="755" y="202"/>
      <point x="755" y="408" type="curve" smooth="yes"/>
      <point x="755" y="668"/>
      <point x="585" y="753"/>
      <point x="420" y="753" type="curve" smooth="yes"/>
      <point x="275" y="753"/>
      <point x="110" y="650"/>
      <point x="110" y="600" type="curve" smooth="yes"/>
      <point x="110" y="589"/>
      <point x="122" y="586"/>
      <point x="138" y="586" type="curve" smooth="yes"/>
      <point x="192" y="586"/>
      <point x="315" y="655"/>
      <point x="420" y="655" type="curve" smooth="yes"/>
      <point x="519" y="655"/>
      <point x="603" y="605"/>
      <point x="603" y="419" type="curve" smooth="yes"/>
      <point x="603" y="266"/>
      <point x="515" y="115"/>
      <point x="376" y="115" type="curve" smooth="yes"/>
      <point x="342" y="115"/>
      <point x="302" y="121"/>
      <point x="261" y="130" type="curve"/>
      <point x="279" y="309"/>
      <point x="334" y="455"/>
      <point x="334" y="535" type="curve" smooth="yes"/>
      <point x="334" y="562"/>
      <point x="322" y="589"/>
      <point x="311" y="589" type="curve" smooth="yes"/>
      <point x="275" y="589"/>
      <point x="252" y="552"/>
    </contour>
  </outline>
</glyph>
<glyph name="F" format="1">
  <advance width="570"/>
  <unicode hex="0046"/>
  <outline>
    <contour>
      <point x="373" y="749" type="curve" smooth="yes"/>
      <point x="175" y="749"/>
      <point x="15" y="681"/>
      <point x="15" y="577" type="curve" smooth="yes"/>
      <point x="15" y="551"/>
      <point x="26" y="533"/>
      <point x="38" y="533" type="curve" smooth="yes"/>
      <point x="41" y="533"/>
      <point x="45" y="534"/>
      <point x="48" y="537" type="curve" smooth="yes"/>
      <point x="91" y="575"/>
      <point x="130" y="627"/>
      <point x="244" y="633" type="curve"/>
      <point x="220" y="578"/>
      <point x="194" y="503"/>
      <point x="171" y="424" type="curve"/>
      <point x="77" y="399"/>
      <point x="37" y="362"/>
      <point x="37" y="331" type="curve" smooth="yes"/>
      <point x="37" y="325"/>
      <point x="42" y="321"/>
      <point x="50" y="321" type="curve" smooth="yes"/>
      <point x="73" y="321"/>
      <point x="107" y="324"/>
      <point x="146" y="329" type="curve"/>
      <point x="120" y="229"/>
      <point x="103" y="134"/>
      <point x="103" y="82" type="curve" smooth="yes"/>
      <point x="103" y="21"/>
      <point x="104" y="-15"/>
      <point x="137" y="-15" type="curve" smooth="yes"/>
      <point x="193" y="-15"/>
      <point x="252" y="-5"/>
      <point x="252" y="44" type="curve" smooth="yes"/>
      <point x="252" y="136"/>
      <point x="276" y="244"/>
      <point x="304" y="346" type="curve"/>
      <point x="313" y="347"/>
      <point x="322" y="347"/>
      <point x="331" y="347" type="curve" smooth="yes"/>
      <point x="357" y="347"/>
      <point x="466" y="340"/>
      <point x="483" y="340" type="curve" smooth="yes"/>
      <point x="502" y="340"/>
      <point x="511" y="351"/>
      <point x="518" y="377" type="curve" smooth="yes"/>
      <point x="522" y="393"/>
      <point x="531" y="417"/>
      <point x="531" y="425" type="curve" smooth="yes"/>
      <point x="531" y="440"/>
      <point x="525" y="444"/>
      <point x="515" y="444" type="curve" smooth="yes"/>
      <point x="488" y="444"/>
      <point x="403" y="446"/>
      <point x="332" y="447" type="curve"/>
      <point x="354" y="520"/>
      <point x="373" y="586"/>
      <point x="380" y="633" type="curve"/>
      <point x="480" y="633"/>
      <point x="603" y="632"/>
      <point x="622" y="632" type="curve" smooth="yes"/>
      <point x="653" y="632"/>
      <point x="668" y="643"/>
      <point x="679" y="671" type="curve" smooth="yes"/>
      <point x="686" y="689"/>
      <point x="700" y="715"/>
      <point x="700" y="723" type="curve" smooth="yes"/>
      <point x="700" y="739"/>
      <point x="690" y="744"/>
      <point x="673" y="744" type="curve" smooth="yes"/>
      <point x="627" y="744"/>
      <point x="493" y="749"/>
    </contour>
  </outline>
</glyph>
<glyph name="K" format="1">
  <advance width="679"/>
  <unicode hex="004B"/>
  <outline>
    <contour>
      <point x="13" y="600" type="curve" smooth="yes"/>
      <point x="11" y="592"/>
      <point x="10" y="584"/>
      <point x="10" y="577" type="curve" smooth="yes"/>
      <point x="10" y="551"/>
      <point x="21" y="533"/>
      <point x="33" y="533" type="curve" smooth="yes"/>
      <point x="36" y="533"/>
      <point x="40" y="534"/>
      <point x="43" y="537" type="curve" smooth="yes"/>
      <point x="86" y="576"/>
      <point x="121" y="603"/>
      <point x="235" y="606" type="curve"/>
      <point x="172" y="464"/>
      <point x="99" y="191"/>
      <point x="99" y="82" type="curve" smooth="yes"/>
      <point x="99" y="21"/>
      <point x="100" y="-15"/>
      <point x="133" y="-15" type="curve" smooth="yes"/>
      <point x="189" y="-15"/>
      <point x="248" y="-5"/>
      <point x="248" y="44" type="curve" smooth="yes"/>
      <point x="248" y="240"/>
      <point x="355" y="484"/>
      <point x="372" y="611" type="curve"/>
      <point x="386" y="626"/>
      <point x="396" y="662"/>
      <point x="396" y="683" type="curve" smooth="yes"/>
      <point x="396" y="710"/>
      <point x="373" y="719"/>
      <point x="364" y="719" type="curve" smooth="yes"/>
      <point x="362" y="719" type="line" smooth="yes"/>
      <point x="238" y="719"/>
      <point x="35" y="691"/>
    </contour>
    <contour>
      <point x="529" y="-3" type="curve" smooth="yes"/>
      <point x="634" y="-3"/>
      <point x="759" y="111"/>
      <point x="759" y="198" type="curve" smooth="yes"/>
      <point x="759" y="221"/>
      <point x="751" y="236"/>
      <point x="741" y="236" type="curve" smooth="yes"/>
      <point x="723" y="236"/>
      <point x="630" y="112"/>
      <point x="589" y="112" type="curve" smooth="yes"/>
      <point x="539" y="112"/>
      <point x="535" y="247"/>
      <point x="493" y="336" type="curve"/>
      <point x="605" y="399"/>
      <point x="727" y="564"/>
      <point x="727" y="682" type="curve" smooth="yes"/>
      <point x="727" y="729"/>
      <point x="714" y="752"/>
      <point x="676" y="752" type="curve" smooth="yes"/>
      <point x="643" y="752"/>
      <point x="620" y="751"/>
      <point x="613" y="735" type="curve" smooth="yes"/>
      <point x="559" y="608"/>
      <point x="520" y="488"/>
      <point x="438" y="401" type="curve"/>
      <point x="425" y="409"/>
      <point x="410" y="413"/>
      <point x="393" y="413" type="curve" smooth="yes"/>
      <point x="357" y="413"/>
      <point x="325" y="400"/>
      <point x="325" y="373" type="curve" smooth="yes"/>
      <point x="325" y="340"/>
      <point x="355" y="318"/>
      <point x="390" y="312" type="curve"/>
      <point x="430" y="178"/>
      <point x="390" y="-3"/>
    </contour>
  </outline>
</glyph>
<glyph name="L" format="1">
  <advance width="592"/>
  <unicode hex="004C"/>
  <outline>
    <contour>
      <point x="442" y="-3" type="curve" smooth="yes"/>
      <point x="577" y="-3"/>
      <point x="669" y="118"/>
      <point x="669" y="198" type="curve" smooth="yes"/>
      <point x="669" y="221"/>
      <point x="664" y="236"/>
      <point x="654" y="236" type="curve" smooth="yes"/>
      <point x="625" y="236"/>
      <point x="560" y="102"/>
      <point x="492" y="102" type="curve" smooth="yes"/>
      <point x="428" y="102"/>
      <point x="390" y="126"/>
      <point x="343" y="150" type="curve"/>
      <point x="347" y="170"/>
      <point x="350" y="192"/>
      <point x="350" y="213" type="curve" smooth="yes"/>
      <point x="350" y="282"/>
      <point x="353" y="351"/>
      <point x="361" y="412" type="curve"/>
      <point x="605" y="418"/>
      <point x="658" y="549"/>
      <point x="658" y="623" type="curve" smooth="yes"/>
      <point x="658" y="728"/>
      <point x="582" y="756"/>
      <point x="500" y="756" type="curve" smooth="yes"/>
      <point x="386" y="756"/>
      <point x="300" y="654"/>
      <point x="250" y="507" type="curve"/>
      <point x="217" y="515"/>
      <point x="188" y="536"/>
      <point x="162" y="536" type="curve" smooth="yes"/>
      <point x="153" y="536"/>
      <point x="148" y="520"/>
      <point x="148" y="509" type="curve" smooth="yes"/>
      <point x="148" y="487"/>
      <point x="184" y="455"/>
      <point x="228" y="433" type="curve"/>
      <point x="211" y="359"/>
      <point x="201" y="278"/>
      <point x="201" y="195" type="curve"/>
      <point x="183" y="197"/>
      <point x="164" y="198"/>
      <point x="143" y="198" type="curve" smooth="yes"/>
      <point x="66" y="198"/>
      <point x="10" y="164"/>
      <point x="10" y="95" type="curve" smooth="yes"/>
      <point x="10" y="29"/>
      <point x="48" y="-17"/>
      <point x="130" y="-17" type="curve" smooth="yes"/>
      <point x="197" y="-17"/>
      <point x="250" y="10"/>
      <point x="287" y="50" type="curve"/>
      <point x="334" y="22"/>
      <point x="385" y="-3"/>
    </contour>
    <contour>
      <point x="498" y="658" type="curve" smooth="yes"/>
      <point x="531" y="658"/>
      <point x="547" y="641"/>
      <point x="547" y="608" type="curve" smooth="yes"/>
      <point x="547" y="563"/>
      <point x="473" y="506"/>
      <point x="376" y="498" type="curve"/>
      <point x="399" y="594"/>
      <point x="437" y="658"/>
    </contour>
    <contour>
      <point x="141" y="61" type="curve" smooth="yes"/>
      <point x="125" y="61"/>
      <point x="107" y="69"/>
      <point x="107" y="89" type="curve" smooth="yes"/>
      <point x="107" y="109"/>
      <point x="124" y="119"/>
      <point x="143" y="119" type="curve" smooth="yes"/>
      <point x="159" y="119"/>
      <point x="176" y="114"/>
      <point x="194" y="105" type="curve"/>
      <point x="187" y="78"/>
      <point x="174" y="61"/>
    </contour>
  </outline>
</glyph>
<glyph name="M" format="1">
  <advance width="951"/>
  <unicode hex="004D"/>
  <outline>
    <contour>
      <point x="404" y="63" type="curve" smooth="yes"/>
      <point x="404" y="19"/>
      <point x="419" y="-15"/>
      <point x="449" y="-15" type="curve" smooth="yes"/>
      <point x="499" y="-15"/>
      <point x="551" y="22"/>
      <point x="551" y="73" type="curve" smooth="yes"/>
      <point x="551" y="90"/>
      <point x="548" y="109"/>
      <point x="545" y="128" type="curve"/>
      <point x="551" y="293"/>
      <point x="667" y="506"/>
      <point x="746" y="506" type="curve" smooth="yes"/>
      <point x="768" y="506"/>
      <point x="775" y="488"/>
      <point x="775" y="458" type="curve" smooth="yes"/>
      <point x="775" y="357"/>
      <point x="698" y="180"/>
      <point x="698" y="98" type="curve" smooth="yes"/>
      <point x="698" y="42"/>
      <point x="732" y="-3"/>
      <point x="801" y="-3" type="curve" smooth="yes"/>
      <point x="906" y="-3"/>
      <point x="1031" y="111"/>
      <point x="1031" y="198" type="curve" smooth="yes"/>
      <point x="1031" y="221"/>
      <point x="1023" y="236"/>
      <point x="1013" y="236" type="curve" smooth="yes"/>
      <point x="995" y="236"/>
      <point x="902" y="112"/>
      <point x="861" y="112" type="curve" smooth="yes"/>
      <point x="842" y="112"/>
      <point x="835" y="126"/>
      <point x="835" y="150" type="curve" smooth="yes"/>
      <point x="835" y="206"/>
      <point x="895" y="368"/>
      <point x="895" y="491" type="curve" smooth="yes"/>
      <point x="895" y="576"/>
      <point x="866" y="643"/>
      <point x="769" y="643" type="curve" smooth="yes"/>
      <point x="703" y="643"/>
      <point x="653" y="606"/>
      <point x="615" y="553" type="curve"/>
      <point x="615" y="561" type="line" smooth="yes"/>
      <point x="615" y="665"/>
      <point x="592" y="752"/>
      <point x="469" y="752" type="curve" smooth="yes"/>
      <point x="387" y="752"/>
      <point x="326" y="695"/>
      <point x="282" y="613" type="curve"/>
      <point x="280" y="689"/>
      <point x="262" y="750"/>
      <point x="170" y="750" type="curve" smooth="yes"/>
      <point x="79" y="750"/>
      <point x="0" y="698"/>
      <point x="0" y="625" type="curve" smooth="yes"/>
      <point x="0" y="604"/>
      <point x="6" y="597"/>
      <point x="16" y="597" type="curve" smooth="yes"/>
      <point x="55" y="597"/>
      <point x="78" y="647"/>
      <point x="115" y="647" type="curve" smooth="yes"/>
      <point x="146" y="647"/>
      <point x="156" y="608"/>
      <point x="156" y="566" type="curve" smooth="yes"/>
      <point x="156" y="527"/>
      <point x="84" y="221"/>
      <point x="84" y="82" type="curve" smooth="yes"/>
      <point x="84" y="21"/>
      <point x="101" y="-15"/>
      <point x="134" y="-15" type="curve" smooth="yes"/>
      <point x="160" y="-15"/>
      <point x="183" y="-2"/>
      <point x="208" y="10" type="curve" smooth="yes"/>
      <point x="239" y="25"/>
      <point x="249" y="52"/>
      <point x="249" y="84" type="curve" smooth="yes"/>
      <point x="249" y="122"/>
      <point x="239" y="163"/>
      <point x="230" y="208" type="curve"/>
      <point x="230" y="214"/>
      <point x="231" y="221"/>
      <point x="231" y="227" type="curve"/>
      <point x="257" y="353"/>
      <point x="332" y="616"/>
      <point x="450" y="616" type="curve" smooth="yes"/>
      <point x="490" y="616"/>
      <point x="501" y="581"/>
      <point x="501" y="526" type="curve" smooth="yes"/>
      <point x="501" y="381"/>
      <point x="404" y="152"/>
    </contour>
  </outline>
</glyph>
<glyph name="P" format="1">
  <advance width="612"/>
  <unicode hex="0050"/>
  <outline>
    <contour>
      <point x="209" y="549" type="curve" smooth="yes"/>
      <point x="141" y="440"/>
      <point x="80" y="208"/>
      <point x="80" y="82" type="curve" smooth="yes"/>
      <point x="80" y="21"/>
      <point x="81" y="-15"/>
      <point x="114" y="-15" type="curve" smooth="yes"/>
      <point x="170" y="-15"/>
      <point x="229" y="-5"/>
      <point x="229" y="44" type="curve"/>
      <point x="239" y="231" type="line"/>
      <point x="239" y="273"/>
      <point x="292" y="456"/>
      <point x="292" y="552" type="curve" smooth="yes"/>
      <point x="292" y="579"/>
      <point x="288" y="606"/>
      <point x="279" y="606" type="curve" smooth="yes"/>
      <point x="250" y="606"/>
      <point x="222" y="569"/>
    </contour>
    <contour>
      <point x="93" y="654" type="curve" smooth="yes"/>
      <point x="70" y="627"/>
      <point x="60" y="608"/>
      <point x="60" y="598" type="curve" smooth="yes"/>
      <point x="60" y="591"/>
      <point x="65" y="587"/>
      <point x="73" y="587" type="curve" smooth="yes"/>
      <point x="135" y="587"/>
      <point x="176" y="657"/>
      <point x="320" y="657" type="curve" smooth="yes"/>
      <point x="434" y="657"/>
      <point x="495" y="608"/>
      <point x="495" y="521" type="curve" smooth="yes"/>
      <point x="495" y="285"/>
      <point x="297" y="365"/>
      <point x="297" y="313" type="curve" smooth="yes"/>
      <point x="297" y="273"/>
      <point x="363" y="268"/>
      <point x="404" y="268" type="curve" smooth="yes"/>
      <point x="551" y="268"/>
      <point x="652" y="397"/>
      <point x="652" y="523" type="curve" smooth="yes"/>
      <point x="652" y="640"/>
      <point x="563" y="753"/>
      <point x="345" y="753" type="curve" smooth="yes"/>
      <point x="237" y="753"/>
      <point x="132" y="699"/>
    </contour>
  </outline>
</glyph>
<glyph name="R" format="1">
  <advance width="651"/>
  <unicode hex="0052"/>
  <outline>
    <contour>
      <point x="501" y="-3" type="curve" smooth="yes"/>
      <point x="606" y="-3"/>
      <point x="731" y="111"/>
      <point x="731" y="198" type="curve" smooth="yes"/>
      <point x="731" y="221"/>
      <point x="723" y="236"/>
      <point x="713" y="236" type="curve" smooth="yes"/>
      <point x="695" y="236"/>
      <point x="602" y="112"/>
      <point x="561" y="112" type="curve" smooth="yes"/>
      <point x="513" y="112"/>
      <point x="507" y="238"/>
      <point x="468" y="327" type="curve"/>
      <point x="547" y="357"/>
      <point x="627" y="427"/>
      <point x="627" y="552" type="curve" smooth="yes"/>
      <point x="627" y="701"/>
      <point x="484" y="753"/>
      <point x="345" y="753" type="curve" smooth="yes"/>
      <point x="165" y="753"/>
      <point x="60" y="631"/>
      <point x="60" y="598" type="curve" smooth="yes"/>
      <point x="60" y="591"/>
      <point x="65" y="587"/>
      <point x="73" y="587" type="curve" smooth="yes"/>
      <point x="135" y="587"/>
      <point x="169" y="657"/>
      <point x="321" y="657" type="curve" smooth="yes"/>
      <point x="430" y="657"/>
      <point x="475" y="609"/>
      <point x="475" y="545" type="curve" smooth="yes"/>
      <point x="475" y="466"/>
      <point x="449" y="431"/>
      <point x="412" y="400" type="curve"/>
      <point x="399" y="408"/>
      <point x="383" y="413"/>
      <point x="365" y="413" type="curve" smooth="yes"/>
      <point x="329" y="413"/>
      <point x="297" y="400"/>
      <point x="297" y="373" type="curve" smooth="yes"/>
      <point x="297" y="340"/>
      <point x="327" y="318"/>
      <point x="362" y="312" type="curve"/>
      <point x="402" y="178"/>
      <point x="362" y="-3"/>
    </contour>
    <contour>
      <point x="209" y="549" type="curve" smooth="yes"/>
      <point x="141" y="440"/>
      <point x="70" y="208"/>
      <point x="70" y="82" type="curve" smooth="yes"/>
      <point x="70" y="21"/>
      <point x="81" y="-15"/>
      <point x="114" y="-15" type="curve" smooth="yes"/>
      <point x="140" y="-15"/>
      <point x="163" y="-2"/>
      <point x="188" y="10" type="curve" smooth="yes"/>
      <point x="219" y="25"/>
      <point x="229" y="52"/>
      <point x="229" y="84" type="curve" smooth="yes"/>
      <point x="229" y="231" type="line" smooth="yes"/>
      <point x="229" y="273"/>
      <point x="292" y="456"/>
      <point x="292" y="552" type="curve" smooth="yes"/>
      <point x="292" y="579"/>
      <point x="288" y="596"/>
      <point x="279" y="596" type="curve" smooth="yes"/>
      <point x="250" y="596"/>
      <point x="222" y="569"/>
    </contour>
  </outline>
</glyph>
<glyph name="S" format="1">
  <advance width="570"/>
  <unicode hex="0053"/>
  <outline>
    <contour>
      <point x="160" y="568" type="curve" smooth="yes"/>
      <point x="160" y="394"/>
      <point x="362" y="367"/>
      <point x="362" y="228" type="curve" smooth="yes"/>
      <point x="362" y="153"/>
      <point x="305" y="124"/>
      <point x="243" y="124" type="curve" smooth="yes"/>
      <point x="186" y="124"/>
      <point x="169" y="165"/>
      <point x="169" y="211" type="curve" smooth="yes"/>
      <point x="169" y="262"/>
      <point x="189" y="301"/>
      <point x="189" y="344" type="curve" smooth="yes"/>
      <point x="189" y="364"/>
      <point x="166" y="366"/>
      <point x="153" y="366" type="curve" smooth="yes"/>
      <point x="88" y="366"/>
      <point x="25" y="267"/>
      <point x="25" y="185" type="curve" smooth="yes"/>
      <point x="25" y="51"/>
      <point x="124" y="-7"/>
      <point x="234" y="-7" type="curve" smooth="yes"/>
      <point x="373" y="-7"/>
      <point x="530" y="86"/>
      <point x="530" y="239" type="curve" smooth="yes"/>
      <point x="530" y="364"/>
      <point x="460" y="415"/>
      <point x="392" y="471" type="curve"/>
      <point x="465" y="483"/>
      <point x="514" y="538"/>
      <point x="514" y="604" type="curve" smooth="yes"/>
      <point x="514" y="709"/>
      <point x="441" y="756"/>
      <point x="359" y="756" type="curve" smooth="yes"/>
      <point x="255" y="756"/>
      <point x="160" y="692"/>
    </contour>
    <contour>
      <point x="276" y="623" type="curve"/>
      <point x="292" y="646"/>
      <point x="323" y="658"/>
      <point x="353" y="658" type="curve" smooth="yes"/>
      <point x="388" y="658"/>
      <point x="420" y="641"/>
      <point x="420" y="608" type="curve" smooth="yes"/>
      <point x="420" y="570"/>
      <point x="390" y="521"/>
      <point x="363" y="495" type="curve"/>
      <point x="326" y="528"/>
      <point x="292" y="566"/>
    </contour>
  </outline>
</glyph>
<glyph name="T" format="1">
  <advance width="552"/>
  <unicode hex="0054"/>
  <outline>
    <contour>
      <point x="316" y="747" type="curve" smooth="yes"/>
      <point x="139" y="747"/>
      <point x="30" y="627"/>
      <point x="30" y="592" type="curve" smooth="yes"/>
      <point x="30" y="585"/>
      <point x="35" y="581"/>
      <point x="43" y="581" type="curve" smooth="yes"/>
      <point x="98" y="581"/>
      <point x="182" y="628"/>
      <point x="303" y="637" type="curve"/>
      <point x="239" y="508"/>
      <point x="172" y="200"/>
      <point x="172" y="82" type="curve" smooth="yes"/>
      <point x="172" y="21"/>
      <point x="173" y="-15"/>
      <point x="206" y="-15" type="curve" smooth="yes"/>
      <point x="262" y="-15"/>
      <point x="321" y="-5"/>
      <point x="321" y="44" type="curve" smooth="yes"/>
      <point x="321" y="254"/>
      <point x="388" y="522"/>
      <point x="398" y="638" type="curve"/>
      <point x="467" y="636"/>
      <point x="573" y="632"/>
      <point x="594" y="632" type="curve" smooth="yes"/>
      <point x="625" y="632"/>
      <point x="640" y="643"/>
      <point x="651" y="671" type="curve" smooth="yes"/>
      <point x="658" y="689"/>
      <point x="672" y="715"/>
      <point x="672" y="723" type="curve" smooth="yes"/>
      <point x="672" y="739"/>
      <point x="662" y="744"/>
      <point x="645" y="744" type="curve" smooth="yes"/>
      <point x="599" y="744"/>
      <point x="436" y="747"/>
    </contour>
  </outline>
</glyph>
<glyph name="W" format="1">
  <advance width="1028"/>
  <unicode hex="0057"/>
  <outline>
    <contour>
      <point x="170" y="750" type="curve" smooth="yes"/>
      <point x="79" y="750"/>
      <point x="0" y="697"/>
      <point x="0" y="625" type="curve" smooth="yes"/>
      <point x="0" y="604"/>
      <point x="6" y="597"/>
      <point x="16" y="597" type="curve" smooth="yes"/>
      <point x="55" y="597"/>
      <point x="78" y="647"/>
      <point x="115" y="647" type="curve" smooth="yes"/>
      <point x="146" y="647"/>
      <point x="156" y="608"/>
      <point x="156" y="566" type="curve" smooth="yes"/>
      <point x="156" y="480"/>
      <point x="75" y="235"/>
      <point x="75" y="182" type="curve" smooth="yes"/>
      <point x="75" y="54"/>
      <point x="151" y="-3"/>
      <point x="269" y="-3" type="curve" smooth="yes"/>
      <point x="364" y="-3"/>
      <point x="441" y="50"/>
      <point x="501" y="126" type="curve"/>
      <point x="537" y="50"/>
      <point x="588" y="-3"/>
      <point x="659" y="-3" type="curve" smooth="yes"/>
      <point x="913" y="-3"/>
      <point x="981" y="273"/>
      <point x="999" y="456" type="curve"/>
      <point x="1047" y="473"/>
      <point x="1078" y="508"/>
      <point x="1078" y="552" type="curve" smooth="yes"/>
      <point x="1078" y="561"/>
      <point x="1072" y="569"/>
      <point x="1064" y="569" type="curve" smooth="yes"/>
      <point x="1041" y="569"/>
      <point x="1028" y="554"/>
      <point x="1005" y="544" type="curve"/>
      <point x="1006" y="561"/>
      <point x="1006" y="576"/>
      <point x="1006" y="588" type="curve" smooth="yes"/>
      <point x="1006" y="692"/>
      <point x="965" y="757"/>
      <point x="873" y="757" type="curve" smooth="yes"/>
      <point x="794" y="757"/>
      <point x="740" y="695"/>
      <point x="740" y="621" type="curve" smooth="yes"/>
      <point x="740" y="544"/>
      <point x="796" y="459"/>
      <point x="898" y="446" type="curve"/>
      <point x="869" y="304"/>
      <point x="806" y="123"/>
      <point x="686" y="123" type="curve" smooth="yes"/>
      <point x="634" y="123"/>
      <point x="597" y="172"/>
      <point x="572" y="239" type="curve"/>
      <point x="637" y="368"/>
      <point x="667" y="515"/>
      <point x="667" y="587" type="curve" smooth="yes"/>
      <point x="667" y="652"/>
      <point x="629" y="696"/>
      <point x="559" y="696" type="curve" smooth="yes"/>
      <point x="465" y="696"/>
      <point x="425" y="635"/>
      <point x="425" y="547" type="curve" smooth="yes"/>
      <point x="425" y="468"/>
      <point x="434" y="341"/>
      <point x="465" y="229" type="curve"/>
      <point x="417" y="166"/>
      <point x="358" y="124"/>
      <point x="297" y="124" type="curve" smooth="yes"/>
      <point x="243" y="124"/>
      <point x="227" y="159"/>
      <point x="227" y="190" type="curve" smooth="yes"/>
      <point x="227" y="337"/>
      <point x="296" y="519"/>
      <point x="296" y="595" type="curve" smooth="yes"/>
      <point x="296" y="671"/>
      <point x="270" y="750"/>
    </contour>
    <contour>
      <point x="525" y="538" type="curve" smooth="yes"/>
      <point x="525" y="574"/>
      <point x="531" y="612"/>
      <point x="551" y="612" type="curve" smooth="yes"/>
      <point x="568" y="612"/>
      <point x="577" y="586"/>
      <point x="577" y="560" type="curve" smooth="yes"/>
      <point x="577" y="497"/>
      <point x="563" y="430"/>
      <point x="539" y="368" type="curve"/>
      <point x="529" y="430"/>
      <point x="525" y="492"/>
    </contour>
    <contour>
      <point x="868" y="630" type="curve" smooth="yes"/>
      <point x="868" y="651"/>
      <point x="875" y="669"/>
      <point x="889" y="669" type="curve" smooth="yes"/>
      <point x="912" y="669"/>
      <point x="919" y="627"/>
      <point x="919" y="604" type="curve" smooth="yes"/>
      <point x="919" y="594"/>
      <point x="918" y="574"/>
      <point x="915" y="549" type="curve"/>
      <point x="887" y="565"/>
      <point x="868" y="594"/>
    </contour>
  </outline>
</glyph>
<glyph name="Z" format="1">
  <advance width="574"/>
  <unicode hex="005A"/>
  <outline>
    <contour>
      <point x="427" y="-3" type="curve" smooth="yes"/>
      <point x="562" y="-3"/>
      <point x="654" y="118"/>
      <point x="654" y="198" type="curve" smooth="yes"/>
      <point x="654" y="221"/>
      <point x="649" y="236"/>
      <point x="639" y="236" type="curve" smooth="yes"/>
      <point x="610" y="236"/>
      <point x="545" y="102"/>
      <point x="477" y="102" type="curve" smooth="yes"/>
      <point x="423" y="102"/>
      <point x="387" y="119"/>
      <point x="349" y="139" type="curve"/>
      <point x="387" y="193"/>
      <point x="425" y="258"/>
      <point x="459" y="325" type="curve"/>
      <point x="490" y="323"/>
      <point x="527" y="320"/>
      <point x="538" y="320" type="curve" smooth="yes"/>
      <point x="557" y="320"/>
      <point x="566" y="331"/>
      <point x="573" y="357" type="curve" smooth="yes"/>
      <point x="577" y="373"/>
      <point x="586" y="397"/>
      <point x="586" y="405" type="curve" smooth="yes"/>
      <point x="586" y="432"/>
      <point x="552" y="425"/>
      <point x="506" y="425" type="curve"/>
      <point x="544" y="514"/>
      <point x="569" y="595"/>
      <point x="569" y="645" type="curve" smooth="yes"/>
      <point x="569" y="723"/>
      <point x="386" y="729"/>
      <point x="336" y="729" type="curve" smooth="yes"/>
      <point x="185" y="729"/>
      <point x="64" y="647"/>
      <point x="64" y="605" type="curve" smooth="yes"/>
      <point x="64" y="592"/>
      <point x="74" y="583"/>
      <point x="94" y="583" type="curve" smooth="yes"/>
      <point x="129" y="583"/>
      <point x="228" y="632"/>
      <point x="317" y="632" type="curve" smooth="yes"/>
      <point x="339" y="632"/>
      <point x="374" y="626"/>
      <point x="402" y="617" type="curve"/>
      <point x="383" y="557"/>
      <point x="368" y="493"/>
      <point x="346" y="423" type="curve"/>
      <point x="224" y="405"/>
      <point x="122" y="362"/>
      <point x="122" y="311" type="curve" smooth="yes"/>
      <point x="122" y="305"/>
      <point x="127" y="301"/>
      <point x="135" y="301" type="curve" smooth="yes"/>
      <point x="173" y="301"/>
      <point x="241" y="312"/>
      <point x="309" y="319" type="curve"/>
      <point x="291" y="276"/>
      <point x="269" y="231"/>
      <point x="242" y="184" type="curve"/>
      <point x="211" y="192"/>
      <point x="174" y="198"/>
      <point x="128" y="198" type="curve" smooth="yes"/>
      <point x="51" y="198"/>
      <point x="-5" y="164"/>
      <point x="-5" y="95" type="curve" smooth="yes"/>
      <point x="-5" y="29"/>
      <point x="33" y="-17"/>
      <point x="115" y="-17" type="curve" smooth="yes"/>
      <point x="183" y="-17"/>
      <point x="235" y="8"/>
      <point x="271" y="46" type="curve"/>
      <point x="275" y="49" type="line"/>
      <point x="320" y="22"/>
      <point x="371" y="-3"/>
    </contour>
    <contour>
      <point x="126" y="61" type="curve" smooth="yes"/>
      <point x="110" y="61"/>
      <point x="92" y="69"/>
      <point x="92" y="89" type="curve" smooth="yes"/>
      <point x="92" y="109"/>
      <point x="109" y="119"/>
      <point x="128" y="119" type="curve" smooth="yes"/>
      <point x="146" y="119"/>
      <point x="165" y="112"/>
      <point x="186" y="102" type="curve"/>
      <point x="163" y="77"/>
      <point x="143" y="61"/>
    </contour>
  </outline>
</glyph>
<glyph name="c" format="1">
  <advance width="365"/>
  <unicode hex="0063"/>
  <outline>
    <contour>
      <point x="188" y="0" type="move" name="bottom"/>
    </contour>
    <contour>
      <point x="256" y="371" type="curve" smooth="yes"/>
      <point x="281" y="371"/>
      <point x="288" y="342"/>
      <point x="314" y="342" type="curve" smooth="yes"/>
      <point x="341" y="342"/>
      <point x="363" y="372"/>
      <point x="363" y="419" type="curve" smooth="yes"/>
      <point x="363" y="455"/>
      <point x="342" y="480"/>
      <point x="294" y="480" type="curve" smooth="yes"/>
      <point x="156" y="480"/>
      <point x="20" y="341"/>
      <point x="20" y="150" type="curve" smooth="yes"/>
      <point x="20" y="41"/>
      <point x="106" y="-6"/>
      <point x="187" y="-6" type="curve" smooth="yes"/>
      <point x="364" y="-6"/>
      <point x="445" y="136"/>
      <point x="445" y="198" type="curve" smooth="yes"/>
      <point x="445" y="222"/>
      <point x="437" y="236"/>
      <point x="427" y="236" type="curve" smooth="yes"/>
      <point x="402" y="236"/>
      <point x="332" y="109"/>
      <point x="252" y="109" type="curve" smooth="yes"/>
      <point x="225" y="109"/>
      <point x="167" y="121"/>
      <point x="167" y="176" type="curve" smooth="yes"/>
      <point x="167" y="266"/>
      <point x="196" y="371"/>
    </contour>
  </outline>
</glyph>
<glyph name="g" format="1">
  <advance width="573"/>
  <unicode hex="0067"/>
  <outline>
    <contour>
      <point x="458" y="499" type="curve" smooth="yes"/>
      <point x="441" y="499"/>
      <point x="423" y="490"/>
      <point x="413" y="455" type="curve"/>
      <point x="391" y="467"/>
      <point x="338" y="478"/>
      <point x="300" y="478" type="curve" smooth="yes"/>
      <point x="217" y="478"/>
      <point x="145" y="426"/>
      <point x="99" y="371" type="curve" smooth="yes"/>
      <point x="48" y="309"/>
      <point x="25" y="226"/>
      <point x="25" y="150" type="curve" smooth="yes"/>
      <point x="25" y="54"/>
      <point x="89" y="-8"/>
      <point x="182" y="-8" type="curve" smooth="yes"/>
      <point x="246" y="-8"/>
      <point x="291" y="12"/>
      <point x="324" y="43" type="curve"/>
      <point x="319" y="21"/>
      <point x="314" y="-2"/>
      <point x="308" y="-24" type="curve"/>
      <point x="161" y="-57"/>
      <point x="43" y="-57"/>
      <point x="43" y="-141" type="curve" smooth="yes"/>
      <point x="43" y="-216"/>
      <point x="116" y="-274"/>
      <point x="202" y="-274" type="curve" smooth="yes"/>
      <point x="347" y="-274"/>
      <point x="378" y="-184"/>
      <point x="410" y="-77" type="curve"/>
      <point x="549" y="-14"/>
      <point x="653" y="121"/>
      <point x="653" y="198" type="curve" smooth="yes"/>
      <point x="653" y="221"/>
      <point x="649" y="233"/>
      <point x="639" y="233" type="curve" smooth="yes"/>
      <point x="612" y="233"/>
      <point x="563" y="129"/>
      <point x="446" y="37" type="curve"/>
      <point x="487" y="173"/>
      <point x="535" y="346"/>
      <point x="535" y="400" type="curve" smooth="yes"/>
      <point x="535" y="424"/>
      <point x="498" y="499"/>
    </contour>
    <contour>
      <point x="229" y="99" type="curve" smooth="yes"/>
      <point x="184" y="99"/>
      <point x="172" y="137"/>
      <point x="172" y="176" type="curve" smooth="yes"/>
      <point x="172" y="316"/>
      <point x="301" y="398"/>
      <point x="401" y="412" type="curve"/>
      <point x="384" y="352"/>
      <point x="360" y="262"/>
      <point x="347" y="201" type="curve"/>
      <point x="321" y="129"/>
      <point x="272" y="99"/>
    </contour>
    <contour>
      <point x="201" y="-197" type="curve" smooth="yes"/>
      <point x="176" y="-197"/>
      <point x="135" y="-182"/>
      <point x="135" y="-153" type="curve" smooth="yes"/>
      <point x="135" y="-132"/>
      <point x="180" y="-135"/>
      <point x="277" y="-116" type="curve"/>
      <point x="256" y="-163"/>
      <point x="231" y="-197"/>
    </contour>
  </outline>
</glyph>
<glyph name="i" format="1">
  <advance width="291"/>
  <unicode hex="0069"/>
  <outline>
    <contour>
      <point x="150" y="-3" type="curve" smooth="yes"/>
      <point x="259" y="-3"/>
      <point x="371" y="111"/>
      <point x="371" y="198" type="curve" smooth="yes"/>
      <point x="371" y="221"/>
      <point x="367" y="233"/>
      <point x="357" y="233" type="curve" smooth="yes"/>
      <point x="338" y="233"/>
      <point x="249" y="112"/>
      <point x="210" y="112" type="curve" smooth="yes"/>
      <point x="191" y="112"/>
      <point x="175" y="123"/>
      <point x="175" y="143" type="curve" smooth="yes"/>
      <point x="175" y="197"/>
      <point x="221" y="311"/>
      <point x="223" y="401" type="curve" smooth="yes"/>
      <point x="223" y="424"/>
      <point x="206" y="497"/>
      <point x="164" y="497" type="curve" smooth="yes"/>
      <point x="91" y="497"/>
      <point x="50" y="303"/>
      <point x="50" y="184" type="curve" smooth="yes"/>
      <point x="50" y="82"/>
      <point x="72" y="-3"/>
    </contour>
    <contour>
      <point x="191" y="578" type="curve"/>
      <point x="243" y="578"/>
      <point x="310" y="610"/>
      <point x="310" y="692" type="curve" smooth="yes"/>
      <point x="310" y="717"/>
      <point x="279" y="800"/>
      <point x="236" y="800" type="curve" smooth="yes"/>
      <point x="192" y="800"/>
      <point x="164" y="711"/>
      <point x="164" y="674" type="curve" smooth="yes"/>
      <point x="164" y="619"/>
      <point x="191" y="578"/>
    </contour>
  </outline>
</glyph>
<glyph name="p" format="1">
  <advance width="550"/>
  <unicode hex="0070"/>
  <outline>
    <contour>
      <point x="352" y="478" type="curve" smooth="yes"/>
      <point x="291" y="478"/>
      <point x="250" y="454"/>
      <point x="219" y="419" type="curve"/>
      <point x="208" y="450"/>
      <point x="178" y="499"/>
      <point x="146" y="499" type="curve" smooth="yes"/>
      <point x="133" y="499"/>
      <point x="116" y="493"/>
      <point x="107" y="471" type="curve" smooth="yes"/>
      <point x="-14" y="189"/>
      <point x="-40" y="-84"/>
      <point x="-40" y="-181" type="curve" smooth="yes"/>
      <point x="-40" y="-203"/>
      <point x="-34" y="-218"/>
      <point x="-21" y="-233" type="curve" smooth="yes"/>
      <point x="-11" y="-245"/>
      <point x="13" y="-274"/>
      <point x="41" y="-274" type="curve" smooth="yes"/>
      <point x="56" y="-274"/>
      <point x="70" y="-259"/>
      <point x="77" y="-246" type="curve" smooth="yes"/>
      <point x="88" y="-225"/>
      <point x="113" y="-14"/>
      <point x="141" y="148" type="curve" smooth="yes"/>
      <point x="150" y="202"/>
      <point x="173" y="247"/>
      <point x="193" y="284" type="curve" smooth="yes"/>
      <point x="222" y="338"/>
      <point x="268" y="371"/>
      <point x="305" y="371" type="curve" smooth="yes"/>
      <point x="338" y="371"/>
      <point x="362" y="343"/>
      <point x="362" y="314" type="curve" smooth="yes"/>
      <point x="362" y="202"/>
      <point x="312" y="104"/>
      <point x="201" y="104" type="curve" smooth="yes"/>
      <point x="201" y="104"/>
      <point x="192" y="83"/>
      <point x="192" y="64" type="curve" smooth="yes"/>
      <point x="192" y="7"/>
      <point x="253" y="-13"/>
      <point x="322" y="-13" type="curve" smooth="yes"/>
      <point x="372" y="-13"/>
      <point x="426" y="-8"/>
      <point x="464" y="7" type="curve" smooth="yes"/>
      <point x="556" y="42"/>
      <point x="630" y="123"/>
      <point x="630" y="197" type="curve" smooth="yes"/>
      <point x="630" y="220"/>
      <point x="626" y="233"/>
      <point x="616" y="233" type="curve" smooth="yes"/>
      <point x="608" y="233"/>
      <point x="595" y="224"/>
      <point x="580" y="204" type="curve" smooth="yes"/>
      <point x="555" y="171"/>
      <point x="465" y="72"/>
      <point x="351" y="72" type="curve" smooth="yes"/>
      <point x="339" y="72" type="line"/>
      <point x="433" y="108"/>
      <point x="508" y="223"/>
      <point x="508" y="326" type="curve" smooth="yes"/>
      <point x="508" y="409"/>
      <point x="463" y="478"/>
    </contour>
  </outline>
</glyph>
<glyph name="r" format="1">
  <advance width="457"/>
  <unicode hex="0072"/>
  <outline>
    <contour>
      <point x="368" y="445" type="curve" smooth="yes"/>
      <point x="340" y="445"/>
      <point x="303" y="407"/>
      <point x="255" y="407" type="curve" smooth="yes"/>
      <point x="240" y="407"/>
      <point x="228" y="408"/>
      <point x="217" y="412" type="curve"/>
      <point x="210" y="444"/>
      <point x="179" y="514"/>
      <point x="123" y="514" type="curve" smooth="yes"/>
      <point x="73" y="514"/>
      <point x="51" y="489"/>
      <point x="51" y="450" type="curve" smooth="yes"/>
      <point x="51" y="425"/>
      <point x="70" y="396"/>
      <point x="97" y="371" type="curve"/>
      <point x="55" y="289"/>
      <point x="45" y="223"/>
      <point x="45" y="82" type="curve" smooth="yes"/>
      <point x="45" y="21"/>
      <point x="56" y="-16"/>
      <point x="89" y="-16" type="curve" smooth="yes"/>
      <point x="156" y="-16"/>
      <point x="182" y="24"/>
      <point x="182" y="39" type="curve" smooth="yes"/>
      <point x="182" y="67"/>
      <point x="176" y="122"/>
      <point x="176" y="176" type="curve" smooth="yes"/>
      <point x="176" y="209"/>
      <point x="191" y="266"/>
      <point x="203" y="316" type="curve"/>
      <point x="211" y="315"/>
      <point x="220" y="314"/>
      <point x="228" y="314" type="curve" smooth="yes"/>
      <point x="239" y="314"/>
      <point x="279" y="317"/>
      <point x="292" y="323" type="curve"/>
      <point x="264" y="267"/>
      <point x="245" y="194"/>
      <point x="245" y="125" type="curve" smooth="yes"/>
      <point x="245" y="58"/>
      <point x="275" y="-3"/>
      <point x="338" y="-3" type="curve" smooth="yes"/>
      <point x="447" y="-3"/>
      <point x="537" y="111"/>
      <point x="537" y="198" type="curve" smooth="yes"/>
      <point x="537" y="221"/>
      <point x="533" y="233"/>
      <point x="523" y="233" type="curve" smooth="yes"/>
      <point x="504" y="233"/>
      <point x="415" y="112"/>
      <point x="376" y="112" type="curve" smooth="yes"/>
      <point x="368" y="112"/>
      <point x="365" y="118"/>
      <point x="365" y="129" type="curve" smooth="yes"/>
      <point x="365" y="165"/>
      <point x="400" y="256"/>
      <point x="424" y="360" type="curve"/>
      <point x="412" y="397"/>
      <point x="390" y="445"/>
    </contour>
  </outline>
</glyph>
<glyph name="s" format="1">
  <advance width="401"/>
  <unicode hex="0073"/>
  <outline>
    <contour>
      <point x="391" y="394" type="curve" smooth="yes"/>
      <point x="391" y="447"/>
      <point x="347" y="485"/>
      <point x="259" y="485" type="curve" smooth="yes"/>
      <point x="171" y="485"/>
      <point x="86" y="429"/>
      <point x="86" y="330" type="curve" smooth="yes"/>
      <point x="86" y="216"/>
      <point x="210" y="185"/>
      <point x="243" y="83" type="curve"/>
      <point x="59" y="83"/>
      <point x="117" y="240"/>
      <point x="54" y="240" type="curve" smooth="yes"/>
      <point x="20" y="240"/>
      <point x="-20" y="180"/>
      <point x="-20" y="119" type="curve" smooth="yes"/>
      <point x="-20" y="56"/>
      <point x="33" y="-8"/>
      <point x="166" y="-8" type="curve" smooth="yes"/>
      <point x="295" y="-8"/>
      <point x="369" y="43"/>
      <point x="369" y="132" type="curve" smooth="yes"/>
      <point x="369" y="177"/>
      <point x="331" y="218"/>
      <point x="293" y="258" type="curve"/>
      <point x="347" y="276"/>
      <point x="391" y="321"/>
    </contour>
    <contour>
      <point x="207" y="389" type="curve"/>
      <point x="207" y="389"/>
      <point x="239" y="399"/>
      <point x="255" y="399" type="curve" smooth="yes"/>
      <point x="284" y="399"/>
      <point x="294" y="384"/>
      <point x="294" y="368" type="curve" smooth="yes"/>
      <point x="294" y="347"/>
      <point x="272" y="319"/>
      <point x="254" y="299" type="curve"/>
      <point x="227" y="328"/>
      <point x="207" y="358"/>
    </contour>
  </outline>
</glyph>
<glyph name="v" format="1">
  <advance width="504"/>
  <unicode hex="0076"/>
  <outline>
    <contour>
      <point x="145" y="-8" type="curve" smooth="yes"/>
      <point x="207" y="-8"/>
      <point x="280" y="64"/>
      <point x="341" y="144" type="curve"/>
      <point x="366" y="107"/>
      <point x="403" y="82"/>
      <point x="454" y="82" type="curve" smooth="yes"/>
      <point x="521" y="82"/>
      <point x="579" y="119"/>
      <point x="579" y="198" type="curve" smooth="yes"/>
      <point x="579" y="221"/>
      <point x="575" y="234"/>
      <point x="565" y="234" type="curve" smooth="yes"/>
      <point x="540" y="234"/>
      <point x="526" y="173"/>
      <point x="451" y="173" type="curve" smooth="yes"/>
      <point x="425" y="173"/>
      <point x="408" y="195"/>
      <point x="397" y="226" type="curve"/>
      <point x="455" y="315"/>
      <point x="473" y="353"/>
      <point x="473" y="392" type="curve" smooth="yes"/>
      <point x="473" y="460"/>
      <point x="431" y="476"/>
      <point x="397" y="476" type="curve" smooth="yes"/>
      <point x="311" y="476"/>
      <point x="289" y="407"/>
      <point x="289" y="348" type="curve" smooth="yes"/>
      <point x="289" y="315"/>
      <point x="292" y="278"/>
      <point x="301" y="242" type="curve"/>
      <point x="268" y="178"/>
      <point x="234" y="125"/>
      <point x="208" y="125" type="curve" smooth="yes"/>
      <point x="162" y="125"/>
      <point x="169" y="203"/>
      <point x="164" y="288" type="curve"/>
      <point x="178" y="337"/>
      <point x="188" y="403"/>
      <point x="188" y="434" type="curve" smooth="yes"/>
      <point x="188" y="464"/>
      <point x="170" y="486"/>
      <point x="138" y="486" type="curve" smooth="yes"/>
      <point x="45" y="486"/>
      <point x="35" y="440"/>
      <point x="35" y="365" type="curve" smooth="yes"/>
      <point x="35" y="309"/>
      <point x="75" y="-8"/>
    </contour>
  </outline>
</glyph>
<glyph name="w" format="1">
  <advance width="755"/>
  <unicode hex="0077"/>
  <outline>
    <contour>
      <point x="138" y="486" type="curve" smooth="yes"/>
      <point x="45" y="486"/>
      <point x="35" y="440"/>
      <point x="35" y="365" type="curve" smooth="yes"/>
      <point x="35" y="309"/>
      <point x="76" y="-8"/>
      <point x="146" y="-8" type="curve" smooth="yes"/>
      <point x="188" y="-8"/>
      <point x="256" y="35"/>
      <point x="320" y="95" type="curve"/>
      <point x="354" y="34"/>
      <point x="394" y="-8"/>
      <point x="416" y="-8" type="curve" smooth="yes"/>
      <point x="465" y="-8"/>
      <point x="537" y="57"/>
      <point x="599" y="138" type="curve"/>
      <point x="625" y="104"/>
      <point x="660" y="82"/>
      <point x="705" y="82" type="curve" smooth="yes"/>
      <point x="772" y="82"/>
      <point x="830" y="119"/>
      <point x="830" y="198" type="curve" smooth="yes"/>
      <point x="830" y="221"/>
      <point x="826" y="234"/>
      <point x="816" y="234" type="curve" smooth="yes"/>
      <point x="791" y="234"/>
      <point x="777" y="173"/>
      <point x="702" y="173" type="curve" smooth="yes"/>
      <point x="680" y="173"/>
      <point x="664" y="189"/>
      <point x="653" y="216" type="curve"/>
      <point x="695" y="284"/>
      <point x="724" y="352"/>
      <point x="724" y="393" type="curve" smooth="yes"/>
      <point x="724" y="438"/>
      <point x="713" y="476"/>
      <point x="648" y="476" type="curve" smooth="yes"/>
      <point x="562" y="476"/>
      <point x="540" y="407"/>
      <point x="540" y="348" type="curve" smooth="yes"/>
      <point x="540" y="316"/>
      <point x="543" y="280"/>
      <point x="552" y="246" type="curve"/>
      <point x="517" y="182"/>
      <point x="479" y="124"/>
      <point x="453" y="124" type="curve" smooth="yes"/>
      <point x="431" y="124"/>
      <point x="410" y="145"/>
      <point x="393" y="175" type="curve"/>
      <point x="444" y="239"/>
      <point x="482" y="310"/>
      <point x="482" y="367" type="curve" smooth="yes"/>
      <point x="482" y="418"/>
      <point x="438" y="456"/>
      <point x="379" y="456" type="curve" smooth="yes"/>
      <point x="291" y="456"/>
      <point x="250" y="404"/>
      <point x="250" y="327" type="curve" smooth="yes"/>
      <point x="250" y="276"/>
      <point x="264" y="220"/>
      <point x="285" y="169" type="curve"/>
      <point x="257" y="143"/>
      <point x="229" y="125"/>
      <point x="209" y="125" type="curve" smooth="yes"/>
      <point x="160" y="125"/>
      <point x="170" y="202"/>
      <point x="164" y="288" type="curve"/>
      <point x="178" y="337"/>
      <point x="188" y="404"/>
      <point x="188" y="434" type="curve" smooth="yes"/>
      <point x="188" y="464"/>
      <point x="170" y="486"/>
    </contour>
    <contour>
      <point x="350" y="318" type="curve" smooth="yes"/>
      <point x="350" y="349"/>
      <point x="353" y="372"/>
      <point x="371" y="372" type="curve" smooth="yes"/>
      <point x="385" y="372"/>
      <point x="392" y="358"/>
      <point x="392" y="340" type="curve" smooth="yes"/>
      <point x="392" y="320"/>
      <point x="379" y="290"/>
      <point x="359" y="260" type="curve"/>
      <point x="353" y="283"/>
      <point x="350" y="304"/>
    </contour>
  </outline>
</glyph>
<glyph name="y" format="1">
  <advance width="535"/>
  <unicode hex="0079"/>
  <outline>
    <contour>
      <point x="284" y="475" type="move" name="top"/>
    </contour>
    <contour>
      <point x="161" y="486" type="curve" smooth="yes"/>
      <point x="140" y="486"/>
      <point x="101" y="481"/>
      <point x="77" y="462" type="curve"/>
      <point x="48" y="225" type="line"/>
      <point x="26" y="183"/>
      <point x="16" y="157"/>
      <point x="16" y="123" type="curve" smooth="yes"/>
      <point x="16" y="41"/>
      <point x="75" y="4"/>
      <point x="165" y="4" type="curve" smooth="yes"/>
      <point x="229" y="4"/>
      <point x="271" y="34"/>
      <point x="299" y="73" type="curve"/>
      <point x="294" y="44"/>
      <point x="287" y="15"/>
      <point x="280" y="-13" type="curve"/>
      <point x="128" y="-49"/>
      <point x="5" y="-55"/>
      <point x="5" y="-141" type="curve" smooth="yes"/>
      <point x="5" y="-216"/>
      <point x="78" y="-274"/>
      <point x="164" y="-274" type="curve" smooth="yes"/>
      <point x="309" y="-274"/>
      <point x="340" y="-184"/>
      <point x="372" y="-77" type="curve"/>
      <point x="511" y="-14"/>
      <point x="615" y="121"/>
      <point x="615" y="198" type="curve" smooth="yes"/>
      <point x="615" y="221"/>
      <point x="611" y="233"/>
      <point x="601" y="233" type="curve" smooth="yes"/>
      <point x="576" y="233"/>
      <point x="527" y="134"/>
      <point x="411" y="47" type="curve"/>
      <point x="452" y="182"/>
      <point x="497" y="347"/>
      <point x="497" y="400" type="curve" smooth="yes"/>
      <point x="497" y="424"/>
      <point x="460" y="499"/>
      <point x="420" y="499" type="curve" smooth="yes"/>
      <point x="407" y="499"/>
      <point x="390" y="493"/>
      <point x="381" y="471" type="curve" smooth="yes"/>
      <point x="370" y="444"/>
      <point x="326" y="295"/>
      <point x="305" y="205" type="curve"/>
      <point x="287" y="152"/>
      <point x="264" y="111"/>
      <point x="212" y="111" type="curve" smooth="yes"/>
      <point x="177" y="111"/>
      <point x="167" y="126"/>
      <point x="167" y="147" type="curve" smooth="yes"/>
      <point x="167" y="241"/>
      <point x="214" y="310"/>
      <point x="214" y="389" type="curve" smooth="yes"/>
      <point x="214" y="440"/>
      <point x="208" y="486"/>
    </contour>
    <contour>
      <point x="163" y="-197" type="curve" smooth="yes"/>
      <point x="138" y="-197"/>
      <point x="97" y="-182"/>
      <point x="97" y="-153" type="curve" smooth="yes"/>
      <point x="97" y="-129"/>
      <point x="153" y="-134"/>
      <point x="248" y="-115" type="curve"/>
      <point x="226" y="-164"/>
      <point x="198" y="-197"/>
    </contour>
  </outline>
</glyph>
<glyph name="z" format="1">
  <advance width="468"/>
  <unicode hex="007A"/>
  <outline>
    <contour>
      <point x="175" y="481" type="curve" smooth="yes"/>
      <point x="94" y="481"/>
      <point x="50" y="416"/>
      <point x="50" y="367" type="curve" smooth="yes"/>
      <point x="50" y="337"/>
      <point x="66" y="313"/>
      <point x="101" y="313" type="curve" smooth="yes"/>
      <point x="133" y="313"/>
      <point x="214" y="322"/>
      <point x="266" y="322" type="curve" smooth="yes"/>
      <point x="293" y="322"/>
      <point x="313" y="319"/>
      <point x="313" y="312" type="curve" smooth="yes"/>
      <point x="313" y="244"/>
      <point x="154" y="163"/>
      <point x="113" y="107" type="curve"/>
      <point x="109" y="89"/>
      <point x="106" y="67"/>
      <point x="106" y="49" type="curve" smooth="yes"/>
      <point x="106" y="14"/>
      <point x="200" y="-11"/>
      <point x="258" y="-11" type="curve" smooth="yes"/>
      <point x="423" y="-11"/>
      <point x="548" y="89"/>
      <point x="548" y="198" type="curve" smooth="yes"/>
      <point x="548" y="221"/>
      <point x="544" y="233"/>
      <point x="534" y="233" type="curve" smooth="yes"/>
      <point x="506" y="233"/>
      <point x="440" y="91"/>
      <point x="324" y="91" type="curve" smooth="yes"/>
      <point x="302" y="91"/>
      <point x="269" y="95"/>
      <point x="243" y="102" type="curve"/>
      <point x="348" y="173"/>
      <point x="425" y="313"/>
      <point x="425" y="313" type="curve"/>
      <point x="425" y="313"/>
      <point x="442" y="355"/>
      <point x="442" y="393" type="curve" smooth="yes"/>
      <point x="442" y="432"/>
      <point x="374" y="435"/>
      <point x="325" y="435" type="curve" smooth="yes"/>
      <point x="270" y="435"/>
      <point x="221" y="481"/>
    </contour>
  </outline>
</glyph>
<glyph name="braceleft" format="1">
  <advance width="485"/>
  <unicode hex="007B"/>
  <outline>
    <contour>
      <point x="271" y="849" type="curve" smooth="yes"/>
      <point x="174" y="849"/>
      <point x="89" y="817"/>
      <point x="89" y="719" type="curve" smooth="yes"/>
      <point x="89" y="645"/>
      <point x="121" y="558"/>
      <point x="121" y="489" type="curve" smooth="yes"/>
      <point x="121" y="438"/>
      <point x="73" y="360"/>
      <point x="12" y="322" type="curve"/>
      <point x="5" y="319"/>
      <point x="-3" y="311"/>
      <point x="-3" y="304" type="curve" smooth="yes"/>
      <point x="-3" y="262"/>
      <point x="96" y="180"/>
      <point x="96" y="101" type="curve" smooth="yes"/>
      <point x="96" y="46"/>
      <point x="62" y="-29"/>
      <point x="62" y="-82" type="curve" smooth="yes"/>
      <point x="62" y="-207"/>
      <point x="146" y="-313"/>
      <point x="271" y="-313" type="curve" smooth="yes"/>
      <point x="307" y="-313"/>
      <point x="413" y="-296"/>
      <point x="413" y="-262" type="curve" smooth="yes"/>
      <point x="413" y="-250"/>
      <point x="399" y="-247"/>
      <point x="386" y="-247" type="curve" smooth="yes"/>
      <point x="355" y="-247"/>
      <point x="342" y="-257"/>
      <point x="319" y="-257" type="curve" smooth="yes"/>
      <point x="240" y="-257"/>
      <point x="197" y="-139"/>
      <point x="197" y="-58" type="curve" smooth="yes"/>
      <point x="197" y="-5"/>
      <point x="234" y="80"/>
      <point x="234" y="133" type="curve" smooth="yes"/>
      <point x="234" y="199"/>
      <point x="164" y="266"/>
      <point x="117" y="307" type="curve"/>
      <point x="188" y="366"/>
      <point x="256" y="471"/>
      <point x="256" y="543" type="curve" smooth="yes"/>
      <point x="256" y="619"/>
      <point x="224" y="696"/>
      <point x="224" y="767" type="curve" smooth="yes"/>
      <point x="224" y="774"/>
      <point x="225" y="782"/>
      <point x="227" y="789" type="curve"/>
      <point x="285" y="787"/>
      <point x="309" y="772"/>
      <point x="346" y="772" type="curve" smooth="yes"/>
      <point x="385" y="772"/>
      <point x="447" y="794"/>
      <point x="447" y="819" type="curve" smooth="yes"/>
      <point x="447" y="834"/>
      <point x="335" y="849"/>
    </contour>
  </outline>
</glyph>
<glyph name="sterling" format="1">
  <advance width="699"/>
  <unicode hex="00A3"/>
  <outline>
    <contour>
      <point x="148" y="418" type="line" smooth="yes"/>
      <point x="112" y="418"/>
      <point x="80" y="375"/>
      <point x="80" y="341" type="curve" smooth="yes"/>
      <point x="80" y="334"/>
      <point x="83" y="332"/>
      <point x="86" y="332" type="curve" smooth="yes"/>
      <point x="86" y="332"/>
      <point x="165" y="337"/>
      <point x="208" y="338" type="curve"/>
      <point x="203" y="293"/>
      <point x="201" y="245"/>
      <point x="201" y="195" type="curve"/>
      <point x="183" y="197"/>
      <point x="164" y="198"/>
      <point x="143" y="198" type="curve" smooth="yes"/>
      <point x="66" y="198"/>
      <point x="10" y="164"/>
      <point x="10" y="95" type="curve" smooth="yes"/>
      <point x="10" y="29"/>
      <point x="48" y="-17"/>
      <point x="130" y="-17" type="curve" smooth="yes"/>
      <point x="197" y="-17"/>
      <point x="250" y="10"/>
      <point x="287" y="50" type="curve"/>
      <point x="334" y="22"/>
      <point x="385" y="-3"/>
      <point x="442" y="-3" type="curve" smooth="yes"/>
      <point x="577" y="-3"/>
      <point x="669" y="118"/>
      <point x="669" y="198" type="curve" smooth="yes"/>
      <point x="669" y="221"/>
      <point x="664" y="236"/>
      <point x="654" y="236" type="curve" smooth="yes"/>
      <point x="625" y="236"/>
      <point x="560" y="102"/>
      <point x="492" y="102" type="curve" smooth="yes"/>
      <point x="428" y="102"/>
      <point x="390" y="126"/>
      <point x="343" y="150" type="curve"/>
      <point x="346" y="167"/>
      <point x="349" y="186"/>
      <point x="350" y="204" type="curve" smooth="yes"/>
      <point x="350" y="213" type="line" smooth="yes"/>
      <point x="350" y="255"/>
      <point x="351" y="296"/>
      <point x="354" y="336" type="curve"/>
      <point x="435" y="334"/>
      <point x="524" y="332"/>
      <point x="524" y="332" type="curve"/>
      <point x="546" y="332"/>
      <point x="591" y="379"/>
      <point x="591" y="401" type="curve" smooth="yes"/>
      <point x="591" y="414"/>
      <point x="587" y="418"/>
      <point x="579" y="418" type="curve" smooth="yes"/>
      <point x="362" y="418" type="line"/>
      <point x="380" y="556"/>
      <point x="422" y="658"/>
      <point x="498" y="658" type="curve" smooth="yes"/>
      <point x="531" y="658"/>
      <point x="547" y="641"/>
      <point x="547" y="608" type="curve" smooth="yes"/>
      <point x="547" y="528"/>
      <point x="563" y="500"/>
      <point x="583" y="500" type="curve" smooth="yes"/>
      <point x="615" y="500"/>
      <point x="658" y="576"/>
      <point x="658" y="623" type="curve" smooth="yes"/>
      <point x="658" y="728"/>
      <point x="582" y="756"/>
      <point x="500" y="756" type="curve" smooth="yes"/>
      <point x="359" y="756"/>
      <point x="259" y="630"/>
      <point x="220" y="418" type="curve"/>
    </contour>
    <contour>
      <point x="141" y="61" type="curve" smooth="yes"/>
      <point x="125" y="61"/>
      <point x="107" y="69"/>
      <point x="107" y="89" type="curve" smooth="yes"/>
      <point x="107" y="109"/>
      <point x="124" y="119"/>
      <point x="143" y="119" type="curve" smooth="yes"/>
      <point x="159" y="119"/>
      <point x="176" y="114"/>
      <point x="194" y="105" type="curve"/>
      <point x="187" y="78"/>
      <point x="174" y="61"/>
    </contour>
  </outline>
</glyph>
<glyph name="yen" format="1">
  <advance width="651"/>
  <unicode hex="00A5"/>
  <outline>
    <contour>
      <point x="178" y="288" type="line" smooth="yes"/>
      <point x="142" y="288"/>
      <point x="110" y="245"/>
      <point x="110" y="211" type="curve" smooth="yes"/>
      <point x="110" y="204"/>
      <point x="113" y="202"/>
      <point x="116" y="202" type="curve" smooth="yes"/>
      <point x="116" y="202"/>
      <point x="222" y="208"/>
      <point x="256" y="208" type="curve" smooth="yes"/>
      <point x="280" y="208" type="line"/>
      <point x="267" y="168" type="line"/>
      <point x="128" y="168" type="line" smooth="yes"/>
      <point x="92" y="168"/>
      <point x="60" y="125"/>
      <point x="60" y="91" type="curve" smooth="yes"/>
      <point x="60" y="84"/>
      <point x="63" y="82"/>
      <point x="66" y="82" type="curve" smooth="yes"/>
      <point x="93" y="82"/>
      <point x="172" y="88"/>
      <point x="206" y="88" type="curve" smooth="yes"/>
      <point x="214" y="88"/>
      <point x="230" y="88"/>
      <point x="251" y="87" type="curve"/>
      <point x="250" y="82"/>
      <point x="250" y="77"/>
      <point x="250" y="72" type="curve" smooth="yes"/>
      <point x="250" y="-5"/>
      <point x="275" y="-35"/>
      <point x="359" y="-35" type="curve" smooth="yes"/>
      <point x="377" y="-35"/>
      <point x="399" y="-29"/>
      <point x="399" y="-7" type="curve" smooth="yes"/>
      <point x="399" y="21"/>
      <point x="402" y="52"/>
      <point x="407" y="84" type="curve"/>
      <point x="461" y="83"/>
      <point x="504" y="82"/>
      <point x="504" y="82" type="curve"/>
      <point x="526" y="82"/>
      <point x="571" y="129"/>
      <point x="571" y="151" type="curve" smooth="yes"/>
      <point x="571" y="164"/>
      <point x="567" y="168"/>
      <point x="559" y="168" type="curve" smooth="yes"/>
      <point x="425" y="168" type="line"/>
      <point x="435" y="205" type="line"/>
      <point x="499" y="203"/>
      <point x="554" y="202"/>
      <point x="554" y="202" type="curve"/>
      <point x="576" y="202"/>
      <point x="621" y="249"/>
      <point x="621" y="271" type="curve" smooth="yes"/>
      <point x="621" y="284"/>
      <point x="617" y="288"/>
      <point x="609" y="288" type="curve" smooth="yes"/>
      <point x="461" y="288" type="line"/>
      <point x="519" y="463"/>
      <point x="598" y="634"/>
      <point x="598" y="695" type="curve" smooth="yes"/>
      <point x="598" y="722"/>
      <point x="574" y="749"/>
      <point x="565" y="749" type="curve" smooth="yes"/>
      <point x="521" y="749"/>
      <point x="496" y="712"/>
      <point x="481" y="679" type="curve" smooth="yes"/>
      <point x="455" y="621"/>
      <point x="398" y="503"/>
      <point x="347" y="384" type="curve"/>
      <point x="284" y="424"/>
      <point x="266" y="487"/>
      <point x="266" y="611" type="curve" smooth="yes"/>
      <point x="266" y="663"/>
      <point x="240" y="750"/>
      <point x="140" y="750" type="curve" smooth="yes"/>
      <point x="49" y="750"/>
      <point x="-30" y="698"/>
      <point x="-30" y="625" type="curve" smooth="yes"/>
      <point x="-30" y="604"/>
      <point x="-24" y="597"/>
      <point x="-14" y="597" type="curve" smooth="yes"/>
      <point x="25" y="597"/>
      <point x="48" y="647"/>
      <point x="85" y="647" type="curve" smooth="yes"/>
      <point x="116" y="647"/>
      <point x="126" y="615"/>
      <point x="126" y="580" type="curve" smooth="yes"/>
      <point x="126" y="443"/>
      <point x="141" y="360"/>
      <point x="272" y="288" type="curve"/>
    </contour>
  </outline>
</glyph>
<glyph name="uni00AD" format="1">
  <advance width="392"/>
  <unicode hex="00AD"/>
  <outline>
    <contour>
      <point x="50" y="322" type="line"/>
      <point x="50" y="264" type="line"/>
      <point x="342" y="264" type="line"/>
      <point x="342" y="322" type="line"/>
    </contour>
  </outline>
</glyph>
<glyph name="registered" format="1">
  <advance width="766"/>
  <unicode hex="00AE"/>
  <outline>
    <contour>
      <point x="626" y="633" type="curve" smooth="yes"/>
      <point x="568" y="651"/>
      <point x="474" y="666"/>
      <point x="418" y="666" type="curve" smooth="yes"/>
      <point x="219" y="666"/>
      <point x="40" y="532"/>
      <point x="40" y="321" type="curve" smooth="yes"/>
      <point x="40" y="143"/>
      <point x="173" y="14"/>
      <point x="349" y="14" type="curve" smooth="yes"/>
      <point x="607" y="14"/>
      <point x="726" y="190"/>
      <point x="726" y="380" type="curve" smooth="yes"/>
      <point x="726" y="456"/>
      <point x="656" y="534"/>
      <point x="620" y="534" type="curve" smooth="yes"/>
      <point x="598" y="534"/>
      <point x="592" y="517"/>
      <point x="592" y="492" type="curve" smooth="yes"/>
      <point x="592" y="446"/>
      <point x="627" y="407"/>
      <point x="627" y="368" type="curve" smooth="yes"/>
      <point x="627" y="216"/>
      <point x="507" y="101"/>
      <point x="375" y="101" type="curve" smooth="yes"/>
      <point x="237" y="101"/>
      <point x="142" y="196"/>
      <point x="142" y="324" type="curve" smooth="yes"/>
      <point x="142" y="478"/>
      <point x="258" y="590"/>
      <point x="399" y="590" type="curve" smooth="yes"/>
      <point x="497" y="590"/>
      <point x="539" y="557"/>
      <point x="583" y="557" type="curve" smooth="yes"/>
      <point x="611" y="557"/>
      <point x="652" y="586"/>
      <point x="652" y="606" type="curve" smooth="yes"/>
      <point x="652" y="620"/>
      <point x="644" y="627"/>
    </contour>
    <contour>
      <point x="463" y="195" type="curve" smooth="yes"/>
      <point x="520" y="195"/>
      <point x="587" y="250"/>
      <point x="587" y="291" type="curve" smooth="yes"/>
      <point x="587" y="307"/>
      <point x="581" y="318"/>
      <point x="570" y="318" type="curve" smooth="yes"/>
      <point x="554" y="318"/>
      <point x="524" y="264"/>
      <point x="500" y="264" type="curve" smooth="yes"/>
      <point x="468" y="264"/>
      <point x="466" y="320"/>
      <point x="457" y="341" type="curve"/>
      <point x="492" y="356"/>
      <point x="522" y="387"/>
      <point x="522" y="444" type="curve" smooth="yes"/>
      <point x="522" y="515"/>
      <point x="456" y="541"/>
      <point x="391" y="541" type="curve" smooth="yes"/>
      <point x="304" y="541"/>
      <point x="259" y="480"/>
      <point x="259" y="463" type="curve" smooth="yes"/>
      <point x="259" y="455"/>
      <point x="265" y="450"/>
      <point x="274" y="450" type="curve" smooth="yes"/>
      <point x="300" y="450"/>
      <point x="320" y="480"/>
      <point x="381" y="480" type="curve" smooth="yes"/>
      <point x="421" y="480"/>
      <point x="437" y="462"/>
      <point x="437" y="441" type="curve" smooth="yes"/>
      <point x="437" y="415"/>
      <point x="430" y="401"/>
      <point x="419" y="389" type="curve"/>
      <point x="413" y="393"/>
      <point x="408" y="394"/>
      <point x="400" y="394" type="curve" smooth="yes"/>
      <point x="378" y="394"/>
      <point x="361" y="383"/>
      <point x="361" y="367" type="curve" smooth="yes"/>
      <point x="361" y="349"/>
      <point x="374" y="337"/>
      <point x="390" y="332" type="curve"/>
      <point x="405" y="274"/>
      <point x="400" y="195"/>
    </contour>
    <contour>
      <point x="299" y="438" type="curve" smooth="yes"/>
      <point x="267" y="388"/>
      <point x="237" y="286"/>
      <point x="237" y="229" type="curve" smooth="yes"/>
      <point x="237" y="198"/>
      <point x="244" y="178"/>
      <point x="265" y="178" type="curve" smooth="yes"/>
      <point x="295" y="178"/>
      <point x="324" y="201"/>
      <point x="324" y="230" type="curve" smooth="yes"/>
      <point x="324" y="295" type="line"/>
      <point x="328" y="343"/>
      <point x="353" y="385"/>
      <point x="353" y="433" type="curve" smooth="yes"/>
      <point x="353" y="450"/>
      <point x="347" y="461"/>
      <point x="337" y="461" type="curve" smooth="yes"/>
      <point x="320" y="461"/>
      <point x="307" y="449"/>
    </contour>
  </outline>
</glyph>
<glyph name="uni00B2" format="1">
  <advance width="347"/>
  <unicode hex="00B2"/>
  <outline>
    <contour>
      <point x="161" y="538" type="curve"/>
      <point x="151" y="541"/>
      <point x="137" y="543"/>
      <point x="120" y="543" type="curve" smooth="yes"/>
      <point x="86" y="543"/>
      <point x="60" y="526"/>
      <point x="60" y="494" type="curve" smooth="yes"/>
      <point x="60" y="463"/>
      <point x="79" y="442"/>
      <point x="115" y="442" type="curve" smooth="yes"/>
      <point x="142" y="442"/>
      <point x="160" y="450"/>
      <point x="176" y="464" type="curve"/>
      <point x="176" y="464"/>
      <point x="202" y="447"/>
      <point x="228" y="447" type="curve" smooth="yes"/>
      <point x="294" y="447"/>
      <point x="327" y="488"/>
      <point x="327" y="517" type="curve" smooth="yes"/>
      <point x="327" y="532"/>
      <point x="321" y="542"/>
      <point x="311" y="542" type="curve" smooth="yes"/>
      <point x="296" y="542"/>
      <point x="281" y="505"/>
      <point x="250" y="505" type="curve" smooth="yes"/>
      <point x="236" y="505"/>
      <point x="227" y="508"/>
      <point x="219" y="511" type="curve"/>
      <point x="257" y="554"/>
      <point x="295" y="617"/>
      <point x="295" y="673" type="curve" smooth="yes"/>
      <point x="295" y="722"/>
      <point x="259" y="749"/>
      <point x="200" y="749" type="curve" smooth="yes"/>
      <point x="140" y="749"/>
      <point x="105" y="704"/>
      <point x="105" y="675" type="curve" smooth="yes"/>
      <point x="105" y="668"/>
      <point x="111" y="658"/>
      <point x="120" y="658" type="curve" smooth="yes"/>
      <point x="143" y="658"/>
      <point x="153" y="693"/>
      <point x="191" y="693" type="curve" smooth="yes"/>
      <point x="205" y="693"/>
      <point x="216" y="685"/>
      <point x="216" y="668" type="curve" smooth="yes"/>
      <point x="216" y="588"/>
      <point x="161" y="538"/>
    </contour>
  </outline>
</glyph>
<glyph name="uni00B3" format="1">
  <advance width="348"/>
  <unicode hex="00B3"/>
  <outline>
    <contour>
      <point x="186" y="752" type="curve" smooth="yes"/>
      <point x="125" y="752"/>
      <point x="92" y="706"/>
      <point x="92" y="677" type="curve" smooth="yes"/>
      <point x="92" y="671"/>
      <point x="98" y="661"/>
      <point x="107" y="661" type="curve" smooth="yes"/>
      <point x="133" y="661"/>
      <point x="145" y="696"/>
      <point x="176" y="696" type="curve" smooth="yes"/>
      <point x="194" y="696"/>
      <point x="203" y="687"/>
      <point x="203" y="671" type="curve" smooth="yes"/>
      <point x="203" y="658"/>
      <point x="197" y="643"/>
      <point x="192" y="636" type="curve"/>
      <point x="189" y="637"/>
      <point x="184" y="638"/>
      <point x="179" y="638" type="curve" smooth="yes"/>
      <point x="166" y="638"/>
      <point x="139" y="633"/>
      <point x="139" y="610" type="curve" smooth="yes"/>
      <point x="139" y="587"/>
      <point x="165" y="582"/>
      <point x="183" y="582" type="curve" smooth="yes"/>
      <point x="194" y="582" type="line"/>
      <point x="201" y="572"/>
      <point x="207" y="557"/>
      <point x="207" y="540" type="curve" smooth="yes"/>
      <point x="207" y="523"/>
      <point x="192" y="499"/>
      <point x="159" y="499" type="curve" smooth="yes"/>
      <point x="125" y="499"/>
      <point x="111" y="528"/>
      <point x="88" y="528" type="curve" smooth="yes"/>
      <point x="77" y="528"/>
      <point x="70" y="524"/>
      <point x="70" y="511" type="curve" smooth="yes"/>
      <point x="70" y="483"/>
      <point x="112" y="442"/>
      <point x="167" y="442" type="curve" smooth="yes"/>
      <point x="220" y="442"/>
      <point x="288" y="473"/>
      <point x="288" y="535" type="curve" smooth="yes"/>
      <point x="288" y="569"/>
      <point x="270" y="594"/>
      <point x="251" y="610" type="curve"/>
      <point x="267" y="628"/>
      <point x="280" y="652"/>
      <point x="280" y="675" type="curve" smooth="yes"/>
      <point x="280" y="725"/>
      <point x="246" y="752"/>
    </contour>
  </outline>
</glyph>
<glyph name="acute" format="1">
  <advance width="500"/>
  <unicode hex="00B4"/>
  <outline>
    <contour>
      <point x="120" y="475" type="move" name="_top"/>
    </contour>
    <contour>
      <point x="385" y="741" type="curve" smooth="yes"/>
      <point x="393" y="754"/>
      <point x="401" y="770"/>
      <point x="401" y="775" type="curve" smooth="yes"/>
      <point x="401" y="785"/>
      <point x="379" y="791"/>
      <point x="354" y="791" type="curve" smooth="yes"/>
      <point x="327" y="791"/>
      <point x="295" y="784"/>
      <point x="287" y="768" type="curve" smooth="yes"/>
      <point x="253" y="703"/>
      <point x="224" y="618"/>
      <point x="139" y="597" type="curve"/>
      <point x="131" y="596"/>
      <point x="99" y="586"/>
      <point x="99" y="569" type="curve" smooth="yes"/>
      <point x="99" y="552"/>
      <point x="128" y="550"/>
      <point x="139" y="550" type="curve" smooth="yes"/>
      <point x="272" y="550"/>
      <point x="325" y="639"/>
    </contour>
  </outline>
</glyph>
<glyph name="cedilla" format="1">
  <advance width="500"/>
  <unicode hex="00B8"/>
  <outline>
    <contour>
      <point x="269" y="0" type="move" name="_bottom"/>
    </contour>
    <contour>
      <point x="222" y="1" type="curve" smooth="yes"/>
      <point x="221" y="-22"/>
      <point x="215" y="-65"/>
      <point x="206" y="-87" type="curve" smooth="yes"/>
      <point x="205" y="-89"/>
      <point x="205" y="-90"/>
      <point x="205" y="-93" type="curve" smooth="yes"/>
      <point x="205" y="-102"/>
      <point x="219" y="-105"/>
      <point x="234" y="-105" type="curve" smooth="yes"/>
      <point x="247" y="-105"/>
      <point x="263" y="-102"/>
      <point x="274" y="-99" type="curve"/>
      <point x="279" y="-108"/>
      <point x="282" y="-121"/>
      <point x="282" y="-130" type="curve" smooth="yes"/>
      <point x="282" y="-155"/>
      <point x="264" y="-190"/>
      <point x="242" y="-212" type="curve"/>
      <point x="222" y="-189"/>
      <point x="228" y="-150"/>
      <point x="187" y="-150" type="curve" smooth="yes"/>
      <point x="161" y="-150"/>
      <point x="126" y="-164"/>
      <point x="126" y="-181" type="curve" smooth="yes"/>
      <point x="126" y="-226"/>
      <point x="174" y="-269"/>
      <point x="221" y="-269" type="curve" smooth="yes"/>
      <point x="304" y="-269"/>
      <point x="374" y="-180"/>
      <point x="374" y="-115" type="curve" smooth="yes"/>
      <point x="374" y="-75"/>
      <point x="350" y="-50"/>
      <point x="307" y="-50" type="curve"/>
      <point x="311" y="-29"/>
      <point x="314" y="-5"/>
      <point x="314" y="10" type="curve" smooth="yes"/>
      <point x="314" y="24"/>
      <point x="300" y="30"/>
      <point x="282" y="30" type="curve" smooth="yes"/>
      <point x="256" y="30"/>
      <point x="223" y="18"/>
    </contour>
  </outline>
</glyph>
<glyph name="guillemotright" format="1">
  <advance width="809"/>
  <unicode hex="00BB"/>
  <outline>
    <contour>
      <point x="734" y="235" type="curve"/>
      <point x="745" y="248"/>
      <point x="749" y="254"/>
      <point x="749" y="259" type="curve" smooth="yes"/>
      <point x="749" y="265"/>
      <point x="744" y="270"/>
      <point x="737" y="276" type="curve" smooth="yes"/>
      <point x="627" y="375"/>
      <point x="586" y="416"/>
      <point x="506" y="468" type="curve" smooth="yes"/>
      <point x="501" y="471"/>
      <point x="493" y="474"/>
      <point x="483" y="474" type="curve" smooth="yes"/>
      <point x="445" y="474"/>
      <point x="384" y="446"/>
      <point x="384" y="429" type="curve" smooth="yes"/>
      <point x="384" y="418"/>
      <point x="526" y="303"/>
      <point x="606" y="238" type="curve"/>
      <point x="575" y="198"/>
      <point x="406" y="54"/>
      <point x="382" y="38" type="curve" smooth="yes"/>
      <point x="373" y="32"/>
      <point x="370" y="26"/>
      <point x="370" y="21" type="curve" smooth="yes"/>
      <point x="370" y="9"/>
      <point x="389" y="8"/>
      <point x="397" y="8" type="curve" smooth="yes"/>
      <point x="521" y="8"/>
      <point x="660" y="137"/>
    </contour>
    <contour>
      <point x="464" y="205" type="curve" smooth="yes"/>
      <point x="476" y="217"/>
      <point x="479" y="224"/>
      <point x="479" y="229" type="curve" smooth="yes"/>
      <point x="479" y="235"/>
      <point x="475" y="240"/>
      <point x="467" y="246" type="curve" smooth="yes"/>
      <point x="345" y="339"/>
      <point x="305" y="396"/>
      <point x="206" y="468" type="curve"/>
      <point x="200" y="470"/>
      <point x="193" y="474"/>
      <point x="183" y="474" type="curve" smooth="yes"/>
      <point x="145" y="474"/>
      <point x="114" y="446"/>
      <point x="114" y="429" type="curve" smooth="yes"/>
      <point x="114" y="426"/>
      <point x="250" y="272"/>
      <point x="338" y="207" type="curve"/>
      <point x="307" y="167"/>
      <point x="136" y="54"/>
      <point x="112" y="38" type="curve" smooth="yes"/>
      <point x="103" y="32"/>
      <point x="100" y="26"/>
      <point x="100" y="21" type="curve" smooth="yes"/>
      <point x="100" y="9"/>
      <point x="119" y="8"/>
      <point x="127" y="8" type="curve" smooth="yes"/>
      <point x="237" y="8"/>
      <point x="360" y="107"/>
    </contour>
  </outline>
</glyph>
<glyph name="onehalf" format="1">
  <advance width="697"/>
  <unicode hex="00BD"/>
  <outline>
    <contour>
      <point x="105" y="37" type="line"/>
      <point x="103" y="31"/>
      <point x="102" y="26"/>
      <point x="102" y="20" type="curve" smooth="yes"/>
      <point x="102" y="-6"/>
      <point x="129" y="-54"/>
      <point x="158" y="-54" type="curve" smooth="yes"/>
      <point x="161" y="-54"/>
      <point x="163" y="-53"/>
      <point x="164" y="-51" type="curve" smooth="yes"/>
      <point x="198" y="54"/>
      <point x="339" y="289"/>
      <point x="445" y="456" type="curve" smooth="yes"/>
      <point x="508" y="555"/>
      <point x="563" y="621"/>
      <point x="563" y="669" type="curve" smooth="yes"/>
      <point x="563" y="703"/>
      <point x="529" y="751"/>
      <point x="510" y="751" type="curve" smooth="yes"/>
      <point x="505" y="751"/>
      <point x="502" y="748"/>
      <point x="500" y="743" type="curve"/>
    </contour>
    <contour>
      <point x="156" y="734" type="curve" smooth="yes"/>
      <point x="129" y="725"/>
      <point x="103" y="701"/>
      <point x="103" y="673" type="curve" smooth="yes"/>
      <point x="103" y="666"/>
      <point x="106" y="654"/>
      <point x="117" y="654" type="curve" smooth="yes"/>
      <point x="135" y="654"/>
      <point x="172" y="679"/>
      <point x="172" y="679" type="curve"/>
      <point x="155" y="626"/>
      <point x="135" y="549"/>
      <point x="134" y="510" type="curve"/>
      <point x="84" y="504"/>
      <point x="60" y="482"/>
      <point x="60" y="458" type="curve" smooth="yes"/>
      <point x="60" y="451"/>
      <point x="63" y="445"/>
      <point x="74" y="445" type="curve" smooth="yes"/>
      <point x="91" y="445"/>
      <point x="120" y="454"/>
      <point x="160" y="454" type="curve" smooth="yes"/>
      <point x="175" y="454"/>
      <point x="215" y="452"/>
      <point x="237" y="452" type="curve" smooth="yes"/>
      <point x="258" y="452"/>
      <point x="270" y="477"/>
      <point x="270" y="494" type="curve" smooth="yes"/>
      <point x="270" y="507"/>
      <point x="263" y="510"/>
      <point x="252" y="510" type="curve" smooth="yes"/>
      <point x="212" y="510" type="line"/>
      <point x="221" y="591"/>
      <point x="251" y="686"/>
      <point x="251" y="723" type="curve" smooth="yes"/>
      <point x="251" y="729"/>
      <point x="248" y="735"/>
      <point x="234" y="751" type="curve"/>
      <point x="203" y="751"/>
      <point x="177" y="741"/>
    </contour>
    <contour>
      <point x="481" y="83" type="curve"/>
      <point x="471" y="86"/>
      <point x="457" y="88"/>
      <point x="440" y="88" type="curve" smooth="yes"/>
      <point x="406" y="88"/>
      <point x="380" y="71"/>
      <point x="380" y="39" type="curve" smooth="yes"/>
      <point x="380" y="8"/>
      <point x="399" y="-13"/>
      <point x="435" y="-13" type="curve" smooth="yes"/>
      <point x="462" y="-13"/>
      <point x="480" y="-5"/>
      <point x="496" y="9" type="curve"/>
      <point x="496" y="9"/>
      <point x="522" y="-8"/>
      <point x="548" y="-8" type="curve" smooth="yes"/>
      <point x="614" y="-8"/>
      <point x="647" y="33"/>
      <point x="647" y="62" type="curve" smooth="yes"/>
      <point x="647" y="77"/>
      <point x="641" y="87"/>
      <point x="631" y="87" type="curve" smooth="yes"/>
      <point x="616" y="87"/>
      <point x="601" y="50"/>
      <point x="570" y="50" type="curve" smooth="yes"/>
      <point x="556" y="50"/>
      <point x="547" y="53"/>
      <point x="539" y="56" type="curve"/>
      <point x="577" y="99"/>
      <point x="615" y="162"/>
      <point x="615" y="218" type="curve" smooth="yes"/>
      <point x="615" y="267"/>
      <point x="579" y="294"/>
      <point x="520" y="294" type="curve" smooth="yes"/>
      <point x="460" y="294"/>
      <point x="425" y="249"/>
      <point x="425" y="220" type="curve" smooth="yes"/>
      <point x="425" y="213"/>
      <point x="431" y="203"/>
      <point x="440" y="203" type="curve" smooth="yes"/>
      <point x="463" y="203"/>
      <point x="473" y="238"/>
      <point x="511" y="238" type="curve" smooth="yes"/>
      <point x="525" y="238"/>
      <point x="536" y="230"/>
      <point x="536" y="213" type="curve" smooth="yes"/>
      <point x="536" y="133"/>
      <point x="481" y="83"/>
    </contour>
  </outline>
</glyph>
<glyph name="Acircumflex" format="1">
  <advance width="695"/>
  <unicode hex="00C2"/>
  <outline>
    <contour>
      <point x="545" y="-3" type="curve" smooth="yes"/>
      <point x="650" y="-3"/>
      <point x="775" y="111"/>
      <point x="775" y="198" type="curve" smooth="yes"/>
      <point x="775" y="221"/>
      <point x="767" y="236"/>
      <point x="757" y="236" type="curve" smooth="yes"/>
      <point x="739" y="236"/>
      <point x="646" y="112"/>
      <point x="605" y="112" type="curve" smooth="yes"/>
      <point x="585" y="112"/>
      <point x="582" y="132"/>
      <point x="582" y="164" type="curve" smooth="yes"/>
      <point x="582" y="244"/>
      <point x="689" y="410"/>
      <point x="689" y="566" type="curve" smooth="yes"/>
      <point x="689" y="670"/>
      <point x="641" y="757"/>
      <point x="503" y="757" type="curve" smooth="yes"/>
      <point x="348" y="757"/>
      <point x="233" y="585"/>
      <point x="164" y="409" type="curve"/>
      <point x="49" y="389"/>
      <point x="-20" y="339"/>
      <point x="-20" y="301" type="curve" smooth="yes"/>
      <point x="-20" y="295"/>
      <point x="-15" y="291"/>
      <point x="-7" y="291" type="curve" smooth="yes"/>
      <point x="26" y="291"/>
      <point x="71" y="299"/>
      <point x="129" y="306" type="curve"/>
      <point x="102" y="215"/>
      <point x="88" y="132"/>
      <point x="88" y="82" type="curve" smooth="yes"/>
      <point x="88" y="21"/>
      <point x="105" y="-15"/>
      <point x="138" y="-15" type="curve" smooth="yes"/>
      <point x="164" y="-15"/>
      <point x="187" y="-2"/>
      <point x="212" y="10" type="curve" smooth="yes"/>
      <point x="243" y="25"/>
      <point x="253" y="52"/>
      <point x="253" y="84" type="curve" smooth="yes"/>
      <point x="253" y="137"/>
      <point x="256" y="227"/>
      <point x="271" y="317" type="curve"/>
      <point x="285" y="317" type="line" smooth="yes"/>
      <point x="316" y="317"/>
      <point x="425" y="313"/>
      <point x="486" y="311" type="curve"/>
      <point x="462" y="237"/>
      <point x="441" y="161"/>
      <point x="441" y="103" type="curve" smooth="yes"/>
      <point x="441" y="40"/>
      <point x="467" y="-3"/>
    </contour>
    <contour>
      <point x="427" y="864" type="curve" smooth="yes"/>
      <point x="457" y="890"/>
      <point x="481" y="909"/>
      <point x="506" y="929" type="curve"/>
      <point x="555" y="897"/>
      <point x="584" y="871"/>
      <point x="634" y="822" type="curve" smooth="yes"/>
      <point x="641" y="815"/>
      <point x="654" y="811"/>
      <point x="667" y="811" type="curve" smooth="yes"/>
      <point x="708" y="811"/>
      <point x="763" y="837"/>
      <point x="763" y="861" type="curve" smooth="yes"/>
      <point x="763" y="864"/>
      <point x="761" y="869"/>
      <point x="757" y="873" type="curve" smooth="yes"/>
      <point x="693" y="945"/>
      <point x="658" y="966"/>
      <point x="574" y="1015" type="curve" smooth="yes"/>
      <point x="566" y="1020"/>
      <point x="556" y="1022"/>
      <point x="546" y="1022" type="curve" smooth="yes"/>
      <point x="514" y="1022"/>
      <point x="481" y="1006"/>
      <point x="460" y="990" type="curve" smooth="yes"/>
      <point x="407" y="949"/>
      <point x="371" y="925"/>
      <point x="322" y="883" type="curve" smooth="yes"/>
      <point x="314" y="876"/>
      <point x="309" y="868"/>
      <point x="309" y="860" type="curve" smooth="yes"/>
      <point x="309" y="840"/>
      <point x="338" y="838"/>
      <point x="351" y="838" type="curve" smooth="yes"/>
      <point x="378" y="838"/>
      <point x="408" y="847"/>
    </contour>
    <contour>
      <point x="484" y="621" type="curve" smooth="yes"/>
      <point x="524" y="621"/>
      <point x="545" y="586"/>
      <point x="545" y="531" type="curve" smooth="yes"/>
      <point x="545" y="502"/>
      <point x="534" y="461"/>
      <point x="520" y="414" type="curve"/>
      <point x="293" y="417" type="line"/>
      <point x="325" y="528"/>
      <point x="383" y="621"/>
    </contour>
  </outline>
</glyph>
<glyph name="Atilde" format="1">
  <advance width="695"/>
  <unicode hex="00C3"/>
  <outline>
    <contour>
      <point x="545" y="-3" type="curve" smooth="yes"/>
      <point x="650" y="-3"/>
      <point x="775" y="111"/>
      <point x="775" y="198" type="curve" smooth="yes"/>
      <point x="775" y="221"/>
      <point x="767" y="236"/>
      <point x="757" y="236" type="curve" smooth="yes"/>
      <point x="739" y="236"/>
      <point x="646" y="112"/>
      <point x="605" y="112" type="curve" smooth="yes"/>
      <point x="585" y="112"/>
      <point x="582" y="132"/>
      <point x="582" y="164" type="curve" smooth="yes"/>
      <point x="582" y="244"/>
      <point x="689" y="410"/>
      <point x="689" y="566" type="curve" smooth="yes"/>
      <point x="689" y="670"/>
      <point x="641" y="757"/>
      <point x="503" y="757" type="curve" smooth="yes"/>
      <point x="348" y="757"/>
      <point x="233" y="585"/>
      <point x="164" y="409" type="curve"/>
      <point x="49" y="389"/>
      <point x="-20" y="339"/>
      <point x="-20" y="301" type="curve" smooth="yes"/>
      <point x="-20" y="295"/>
      <point x="-15" y="291"/>
      <point x="-7" y="291" type="curve" smooth="yes"/>
      <point x="26" y="291"/>
      <point x="71" y="299"/>
      <point x="129" y="306" type="curve"/>
      <point x="102" y="215"/>
      <point x="88" y="132"/>
      <point x="88" y="82" type="curve" smooth="yes"/>
      <point x="88" y="21"/>
      <point x="105" y="-15"/>
      <point x="138" y="-15" type="curve" smooth="yes"/>
      <point x="164" y="-15"/>
      <point x="187" y="-2"/>
      <point x="212" y="10" type="curve" smooth="yes"/>
      <point x="243" y="25"/>
      <point x="253" y="52"/>
      <point x="253" y="84" type="curve" smooth="yes"/>
      <point x="253" y="137"/>
      <point x="256" y="227"/>
      <point x="271" y="317" type="curve"/>
      <point x="285" y="317" type="line" smooth="yes"/>
      <point x="316" y="317"/>
      <point x="425" y="313"/>
      <point x="486" y="311" type="curve"/>
      <point x="462" y="237"/>
      <point x="441" y="161"/>
      <point x="441" y="103" type="curve" smooth="yes"/>
      <point x="441" y="40"/>
      <point x="467" y="-3"/>
    </contour>
    <contour>
      <point x="397" y="907" type="curve" smooth="yes"/>
      <point x="410" y="930"/>
      <point x="423" y="940"/>
      <point x="434" y="940" type="curve" smooth="yes"/>
      <point x="506" y="940"/>
      <point x="545" y="839"/>
      <point x="628" y="839" type="curve" smooth="yes"/>
      <point x="694" y="839"/>
      <point x="746" y="868"/>
      <point x="779" y="937" type="curve"/>
      <point x="782" y="939"/>
      <point x="782" y="942"/>
      <point x="782" y="945" type="curve" smooth="yes"/>
      <point x="782" y="958"/>
      <point x="768" y="963"/>
      <point x="749" y="963" type="curve" smooth="yes"/>
      <point x="693" y="963"/>
      <point x="681" y="923"/>
      <point x="658" y="923" type="curve" smooth="yes"/>
      <point x="596" y="923"/>
      <point x="550" y="1032"/>
      <point x="469" y="1032" type="curve" smooth="yes"/>
      <point x="424" y="1032"/>
      <point x="357" y="1008"/>
      <point x="300" y="938" type="curve" smooth="yes"/>
      <point x="291" y="927"/>
      <point x="281" y="913"/>
      <point x="282" y="900" type="curve" smooth="yes"/>
      <point x="282" y="891"/>
      <point x="287" y="878"/>
      <point x="302" y="878" type="curve" smooth="yes"/>
      <point x="329" y="878"/>
      <point x="384" y="886"/>
    </contour>
    <contour>
      <point x="484" y="621" type="curve" smooth="yes"/>
      <point x="524" y="621"/>
      <point x="545" y="586"/>
      <point x="545" y="531" type="curve" smooth="yes"/>
      <point x="545" y="502"/>
      <point x="534" y="461"/>
      <point x="520" y="414" type="curve"/>
      <point x="293" y="417" type="line"/>
      <point x="325" y="528"/>
      <point x="383" y="621"/>
    </contour>
  </outline>
</glyph>
<glyph name="Aring" format="1">
  <advance width="695"/>
  <unicode hex="00C5"/>
  <outline>
    <contour>
      <point x="496" y="945" type="line" smooth="yes"/>
      <point x="427" y="945"/>
      <point x="369" y="902"/>
      <point x="369" y="834" type="curve" smooth="yes"/>
      <point x="369" y="793"/>
      <point x="387" y="760"/>
      <point x="414" y="737" type="curve"/>
      <point x="303" y="688"/>
      <point x="219" y="550"/>
      <point x="164" y="409" type="curve"/>
      <point x="49" y="389"/>
      <point x="-20" y="339"/>
      <point x="-20" y="301" type="curve" smooth="yes"/>
      <point x="-20" y="295"/>
      <point x="-15" y="291"/>
      <point x="-7" y="291" type="curve" smooth="yes"/>
      <point x="26" y="291"/>
      <point x="71" y="299"/>
      <point x="129" y="306" type="curve"/>
      <point x="102" y="215"/>
      <point x="88" y="132"/>
      <point x="88" y="82" type="curve" smooth="yes"/>
      <point x="88" y="21"/>
      <point x="105" y="-15"/>
      <point x="138" y="-15" type="curve" smooth="yes"/>
      <point x="164" y="-15"/>
      <point x="187" y="-2"/>
      <point x="212" y="10" type="curve" smooth="yes"/>
      <point x="243" y="25"/>
      <point x="253" y="52"/>
      <point x="253" y="84" type="curve" smooth="yes"/>
      <point x="253" y="137"/>
      <point x="256" y="227"/>
      <point x="271" y="317" type="curve"/>
      <point x="285" y="317" type="line" smooth="yes"/>
      <point x="316" y="317"/>
      <point x="425" y="313"/>
      <point x="486" y="311" type="curve"/>
      <point x="462" y="237"/>
      <point x="441" y="161"/>
      <point x="441" y="103" type="curve" smooth="yes"/>
      <point x="441" y="40"/>
      <point x="467" y="-3"/>
      <point x="545" y="-3" type="curve" smooth="yes"/>
      <point x="650" y="-3"/>
      <point x="775" y="111"/>
      <point x="775" y="198" type="curve" smooth="yes"/>
      <point x="775" y="221"/>
      <point x="767" y="236"/>
      <point x="757" y="236" type="curve" smooth="yes"/>
      <point x="739" y="236"/>
      <point x="646" y="112"/>
      <point x="605" y="112" type="curve" smooth="yes"/>
      <point x="585" y="112"/>
      <point x="582" y="132"/>
      <point x="582" y="164" type="curve" smooth="yes"/>
      <point x="582" y="244"/>
      <point x="689" y="410"/>
      <point x="689" y="566" type="curve" smooth="yes"/>
      <point x="689" y="635"/>
      <point x="667" y="697"/>
      <point x="612" y="731" type="curve"/>
      <point x="649" y="751"/>
      <point x="677" y="781"/>
      <point x="677" y="819" type="curve" smooth="yes"/>
      <point x="677" y="881"/>
      <point x="587" y="948"/>
      <point x="525" y="948" type="curve" smooth="yes"/>
      <point x="519" y="948"/>
      <point x="513" y="947"/>
      <point x="507" y="945" type="curve"/>
    </contour>
    <contour>
      <point x="484" y="621" type="curve" smooth="yes"/>
      <point x="524" y="621"/>
      <point x="545" y="586"/>
      <point x="545" y="531" type="curve" smooth="yes"/>
      <point x="545" y="502"/>
      <point x="534" y="461"/>
      <point x="520" y="414" type="curve"/>
      <point x="293" y="417" type="line"/>
      <point x="325" y="528"/>
      <point x="383" y="621"/>
    </contour>
    <contour>
      <point x="579" y="808" type="curve" smooth="yes"/>
      <point x="579" y="782"/>
      <point x="558" y="772"/>
      <point x="537" y="772" type="curve" smooth="yes"/>
      <point x="493" y="772"/>
      <point x="467" y="810"/>
      <point x="467" y="849" type="curve" smooth="yes"/>
      <point x="467" y="860"/>
      <point x="469" y="869"/>
      <point x="474" y="877" type="curve"/>
      <point x="484" y="874"/>
      <point x="495" y="873"/>
      <point x="506" y="873" type="curve" smooth="yes"/>
      <point x="510" y="873"/>
      <point x="514" y="873"/>
      <point x="518" y="874" type="curve"/>
      <point x="546" y="862"/>
      <point x="579" y="836"/>
    </contour>
  </outline>
</glyph>
<glyph name="Edieresis" format="1">
  <advance width="529"/>
  <unicode hex="00CB"/>
  <outline>
    <contour>
      <point x="309" y="-3" type="curve" smooth="yes"/>
      <point x="472" y="-3"/>
      <point x="609" y="90"/>
      <point x="609" y="198" type="curve" smooth="yes"/>
      <point x="609" y="221"/>
      <point x="601" y="236"/>
      <point x="591" y="236" type="curve" smooth="yes"/>
      <point x="571" y="236"/>
      <point x="496" y="112"/>
      <point x="369" y="112" type="curve" smooth="yes"/>
      <point x="272" y="112"/>
      <point x="207" y="145"/>
      <point x="207" y="228" type="curve" smooth="yes"/>
      <point x="207" y="296"/>
      <point x="229" y="333"/>
      <point x="267" y="359" type="curve"/>
      <point x="283" y="354"/>
      <point x="299" y="351"/>
      <point x="315" y="351" type="curve" smooth="yes"/>
      <point x="356" y="351"/>
      <point x="415" y="360"/>
      <point x="415" y="402" type="curve" smooth="yes"/>
      <point x="415" y="439"/>
      <point x="373" y="446"/>
      <point x="328" y="446" type="curve" smooth="yes"/>
      <point x="316" y="446"/>
      <point x="305" y="445"/>
      <point x="295" y="443" type="curve"/>
      <point x="272" y="464"/>
      <point x="255" y="497"/>
      <point x="255" y="540" type="curve" smooth="yes"/>
      <point x="255" y="545"/>
      <point x="255" y="551"/>
      <point x="256" y="556" type="curve"/>
      <point x="296" y="527"/>
      <point x="336" y="508"/>
      <point x="390" y="508" type="curve" smooth="yes"/>
      <point x="497" y="508"/>
      <point x="563" y="563"/>
      <point x="563" y="633" type="curve" smooth="yes"/>
      <point x="563" y="729"/>
      <point x="481" y="756"/>
      <point x="399" y="756" type="curve" smooth="yes"/>
      <point x="311" y="756"/>
      <point x="244" y="733"/>
      <point x="196" y="704" type="curve"/>
      <point x="160" y="726"/>
      <point x="126" y="781"/>
      <point x="101" y="781" type="curve" smooth="yes"/>
      <point x="91" y="781"/>
      <point x="81" y="772"/>
      <point x="81" y="759" type="curve" smooth="yes"/>
      <point x="81" y="730"/>
      <point x="104" y="684"/>
      <point x="137" y="647" type="curve"/>
      <point x="119" y="619"/>
      <point x="110" y="588"/>
      <point x="110" y="556" type="curve" smooth="yes"/>
      <point x="110" y="485"/>
      <point x="134" y="436"/>
      <point x="183" y="402" type="curve"/>
      <point x="102" y="370"/>
      <point x="40" y="309"/>
      <point x="40" y="202" type="curve" smooth="yes"/>
      <point x="40" y="56"/>
      <point x="154" y="-3"/>
    </contour>
    <contour>
      <point x="379" y="930" type="curve"/>
      <point x="365" y="960"/>
      <point x="340" y="1001"/>
      <point x="308" y="1001" type="curve" smooth="yes"/>
      <point x="263" y="1001"/>
      <point x="219" y="947"/>
      <point x="219" y="887" type="curve" smooth="yes"/>
      <point x="219" y="863"/>
      <point x="230" y="847"/>
      <point x="259" y="847" type="curve" smooth="yes"/>
      <point x="310" y="847"/>
      <point x="358" y="879"/>
    </contour>
    <contour>
      <point x="573" y="959" type="curve"/>
      <point x="554" y="982"/>
      <point x="527" y="992"/>
      <point x="495" y="992" type="curve" smooth="yes"/>
      <point x="450" y="992"/>
      <point x="419" y="954"/>
      <point x="419" y="894" type="curve" smooth="yes"/>
      <point x="419" y="870"/>
      <point x="439" y="847"/>
      <point x="469" y="847" type="curve" smooth="yes"/>
      <point x="520" y="847"/>
      <point x="551" y="902"/>
    </contour>
    <contour>
      <point x="392" y="657" type="curve" smooth="yes"/>
      <point x="425" y="657"/>
      <point x="452" y="645"/>
      <point x="452" y="618" type="curve" smooth="yes"/>
      <point x="452" y="595"/>
      <point x="430" y="585"/>
      <point x="398" y="585" type="curve" smooth="yes"/>
      <point x="352" y="585"/>
      <point x="316" y="599"/>
      <point x="285" y="618" type="curve"/>
      <point x="312" y="645"/>
      <point x="352" y="657"/>
    </contour>
  </outline>
</glyph>
<glyph name="Igrave" format="1">
  <advance width="328"/>
  <unicode hex="00CC"/>
  <outline>
    <contour>
      <point x="206" y="684" type="curve" smooth="yes"/>
      <point x="153" y="567"/>
      <point x="65" y="228"/>
      <point x="65" y="102" type="curve" smooth="yes"/>
      <point x="65" y="25"/>
      <point x="90" y="-5"/>
      <point x="174" y="-5" type="curve" smooth="yes"/>
      <point x="192" y="-5"/>
      <point x="214" y="1"/>
      <point x="214" y="23" type="curve" smooth="yes"/>
      <point x="214" y="252"/>
      <point x="323" y="604"/>
      <point x="323" y="700" type="curve" smooth="yes"/>
      <point x="323" y="727"/>
      <point x="308" y="754"/>
      <point x="290" y="754" type="curve" smooth="yes"/>
      <point x="246" y="754"/>
      <point x="221" y="717"/>
    </contour>
    <contour>
      <point x="247" y="830" type="curve" smooth="yes"/>
      <point x="276" y="830"/>
      <point x="331" y="840"/>
      <point x="331" y="855" type="curve" smooth="yes"/>
      <point x="331" y="860"/>
      <point x="325" y="865"/>
      <point x="311" y="869" type="curve" smooth="yes"/>
      <point x="224" y="894"/>
      <point x="158" y="928"/>
      <point x="107" y="997" type="curve" smooth="yes"/>
      <point x="100" y="1006"/>
      <point x="87" y="1012"/>
      <point x="70" y="1012" type="curve" smooth="yes"/>
      <point x="39" y="1012"/>
      <point x="-17" y="997"/>
      <point x="-17" y="975" type="curve" smooth="yes"/>
      <point x="-17" y="877"/>
      <point x="171" y="830"/>
    </contour>
  </outline>
</glyph>
<glyph name="Iacute" format="1">
  <advance width="328"/>
  <unicode hex="00CD"/>
  <outline>
    <contour>
      <point x="206" y="684" type="curve" smooth="yes"/>
      <point x="153" y="567"/>
      <point x="65" y="228"/>
      <point x="65" y="102" type="curve" smooth="yes"/>
      <point x="65" y="25"/>
      <point x="90" y="-5"/>
      <point x="174" y="-5" type="curve" smooth="yes"/>
      <point x="192" y="-5"/>
      <point x="214" y="1"/>
      <point x="214" y="23" type="curve" smooth="yes"/>
      <point x="214" y="252"/>
      <point x="323" y="604"/>
      <point x="323" y="700" type="curve" smooth="yes"/>
      <point x="323" y="727"/>
      <point x="308" y="754"/>
      <point x="290" y="754" type="curve" smooth="yes"/>
      <point x="246" y="754"/>
      <point x="221" y="717"/>
    </contour>
    <contour>
      <point x="577" y="962" type="curve" smooth="yes"/>
      <point x="586" y="974"/>
      <point x="593" y="991"/>
      <point x="593" y="996" type="curve" smooth="yes"/>
      <point x="593" y="1006"/>
      <point x="570" y="1012"/>
      <point x="545" y="1012" type="curve" smooth="yes"/>
      <point x="518" y="1012"/>
      <point x="488" y="1004"/>
      <point x="478" y="989" type="curve" smooth="yes"/>
      <point x="436" y="926"/>
      <point x="392" y="899"/>
      <point x="310" y="872" type="curve" smooth="yes"/>
      <point x="302" y="869"/>
      <point x="270" y="861"/>
      <point x="270" y="844" type="curve" smooth="yes"/>
      <point x="270" y="827"/>
      <point x="299" y="825"/>
      <point x="310" y="825" type="curve" smooth="yes"/>
      <point x="443" y="825"/>
      <point x="503" y="866"/>
    </contour>
  </outline>
</glyph>
<glyph name="Ocircumflex" format="1">
  <advance width="849"/>
  <unicode hex="00D4"/>
  <outline>
    <contour>
      <point x="476" y="753" type="curve" smooth="yes"/>
      <point x="226" y="753"/>
      <point x="70" y="533"/>
      <point x="70" y="299" type="curve" smooth="yes"/>
      <point x="70" y="142"/>
      <point x="165" y="-8"/>
      <point x="391" y="-8" type="curve" smooth="yes"/>
      <point x="597" y="-8"/>
      <point x="728" y="117"/>
      <point x="768" y="308" type="curve"/>
      <point x="820" y="325"/>
      <point x="854" y="360"/>
      <point x="854" y="407" type="curve" smooth="yes"/>
      <point x="854" y="416"/>
      <point x="848" y="424"/>
      <point x="840" y="424" type="curve" smooth="yes"/>
      <point x="817" y="424"/>
      <point x="804" y="408"/>
      <point x="780" y="398" type="curve"/>
      <point x="781" y="413"/>
      <point x="782" y="429"/>
      <point x="782" y="445" type="curve" smooth="yes"/>
      <point x="782" y="536"/>
      <point x="741" y="612"/>
      <point x="649" y="612" type="curve" smooth="yes"/>
      <point x="570" y="612"/>
      <point x="516" y="550"/>
      <point x="516" y="476" type="curve" smooth="yes"/>
      <point x="516" y="377"/>
      <point x="570" y="313"/>
      <point x="667" y="301" type="curve"/>
      <point x="627" y="198"/>
      <point x="541" y="125"/>
      <point x="401" y="125" type="curve" smooth="yes"/>
      <point x="292" y="125"/>
      <point x="227" y="205"/>
      <point x="227" y="337" type="curve" smooth="yes"/>
      <point x="227" y="484"/>
      <point x="316" y="657"/>
      <point x="468" y="657" type="curve" smooth="yes"/>
      <point x="576" y="657"/>
      <point x="637" y="639"/>
      <point x="667" y="639" type="curve" smooth="yes"/>
      <point x="684" y="639"/>
      <point x="697" y="641"/>
      <point x="697" y="650" type="curve" smooth="yes"/>
      <point x="697" y="695"/>
      <point x="611" y="753"/>
    </contour>
    <contour>
      <point x="425" y="864" type="curve" smooth="yes"/>
      <point x="455" y="890"/>
      <point x="479" y="909"/>
      <point x="504" y="929" type="curve"/>
      <point x="553" y="897"/>
      <point x="582" y="871"/>
      <point x="632" y="822" type="curve" smooth="yes"/>
      <point x="639" y="815"/>
      <point x="652" y="811"/>
      <point x="665" y="811" type="curve" smooth="yes"/>
      <point x="706" y="811"/>
      <point x="761" y="837"/>
      <point x="761" y="861" type="curve" smooth="yes"/>
      <point x="761" y="864"/>
      <point x="759" y="869"/>
      <point x="755" y="873" type="curve" smooth="yes"/>
      <point x="691" y="945"/>
      <point x="656" y="966"/>
      <point x="572" y="1015" type="curve" smooth="yes"/>
      <point x="564" y="1020"/>
      <point x="554" y="1022"/>
      <point x="544" y="1022" type="curve" smooth="yes"/>
      <point x="512" y="1022"/>
      <point x="479" y="1006"/>
      <point x="458" y="990" type="curve" smooth="yes"/>
      <point x="405" y="949"/>
      <point x="369" y="925"/>
      <point x="320" y="883" type="curve" smooth="yes"/>
      <point x="312" y="876"/>
      <point x="307" y="868"/>
      <point x="307" y="860" type="curve" smooth="yes"/>
      <point x="307" y="840"/>
      <point x="336" y="838"/>
      <point x="349" y="838" type="curve" smooth="yes"/>
      <point x="376" y="838"/>
      <point x="406" y="847"/>
    </contour>
    <contour>
      <point x="644" y="485" type="curve" smooth="yes"/>
      <point x="644" y="506"/>
      <point x="651" y="524"/>
      <point x="665" y="524" type="curve" smooth="yes"/>
      <point x="692" y="524"/>
      <point x="695" y="482"/>
      <point x="695" y="459" type="curve" smooth="yes"/>
      <point x="695" y="440"/>
      <point x="694" y="421"/>
      <point x="692" y="403" type="curve"/>
      <point x="664" y="419"/>
      <point x="644" y="448"/>
    </contour>
  </outline>
</glyph>
<glyph name="Ucircumflex" format="1">
  <advance width="691"/>
  <unicode hex="00DB"/>
  <outline>
    <contour>
      <point x="550" y="-3" type="curve" smooth="yes"/>
      <point x="659" y="-3"/>
      <point x="771" y="111"/>
      <point x="771" y="198" type="curve" smooth="yes"/>
      <point x="771" y="221"/>
      <point x="767" y="233"/>
      <point x="757" y="233" type="curve" smooth="yes"/>
      <point x="738" y="233"/>
      <point x="649" y="112"/>
      <point x="610" y="112" type="curve" smooth="yes"/>
      <point x="592" y="112"/>
      <point x="585" y="148"/>
      <point x="585" y="203" type="curve" smooth="yes"/>
      <point x="585" y="339"/>
      <point x="636" y="587"/>
      <point x="636" y="650" type="curve" smooth="yes"/>
      <point x="636" y="713"/>
      <point x="632" y="751"/>
      <point x="608" y="751" type="curve" smooth="yes"/>
      <point x="557" y="751"/>
      <point x="484" y="712"/>
      <point x="484" y="646" type="curve" smooth="yes"/>
      <point x="484" y="622"/>
      <point x="488" y="474"/>
      <point x="488" y="437" type="curve"/>
      <point x="482" y="392" type="line"/>
      <point x="460" y="270"/>
      <point x="401" y="124"/>
      <point x="297" y="124" type="curve" smooth="yes"/>
      <point x="243" y="124"/>
      <point x="227" y="159"/>
      <point x="227" y="191" type="curve" smooth="yes"/>
      <point x="227" y="337"/>
      <point x="296" y="473"/>
      <point x="296" y="596" type="curve" smooth="yes"/>
      <point x="296" y="654"/>
      <point x="270" y="750"/>
      <point x="170" y="750" type="curve" smooth="yes"/>
      <point x="79" y="750"/>
      <point x="0" y="698"/>
      <point x="0" y="625" type="curve" smooth="yes"/>
      <point x="0" y="604"/>
      <point x="6" y="597"/>
      <point x="16" y="597" type="curve" smooth="yes"/>
      <point x="55" y="597"/>
      <point x="78" y="647"/>
      <point x="115" y="647" type="curve" smooth="yes"/>
      <point x="146" y="647"/>
      <point x="156" y="608"/>
      <point x="156" y="566" type="curve" smooth="yes"/>
      <point x="156" y="480"/>
      <point x="75" y="235"/>
      <point x="75" y="182" type="curve" smooth="yes"/>
      <point x="75" y="54"/>
      <point x="151" y="-3"/>
      <point x="269" y="-3" type="curve" smooth="yes"/>
      <point x="373" y="-3"/>
      <point x="433" y="71"/>
      <point x="468" y="152" type="curve"/>
      <point x="469" y="61"/>
      <point x="479" y="-3"/>
    </contour>
    <contour>
      <point x="319" y="864" type="curve" smooth="yes"/>
      <point x="349" y="890"/>
      <point x="373" y="909"/>
      <point x="398" y="929" type="curve"/>
      <point x="447" y="897"/>
      <point x="476" y="871"/>
      <point x="526" y="822" type="curve" smooth="yes"/>
      <point x="533" y="815"/>
      <point x="546" y="811"/>
      <point x="559" y="811" type="curve" smooth="yes"/>
      <point x="600" y="811"/>
      <point x="655" y="837"/>
      <point x="655" y="861" type="curve" smooth="yes"/>
      <point x="655" y="864"/>
      <point x="653" y="869"/>
      <point x="649" y="873" type="curve" smooth="yes"/>
      <point x="585" y="945"/>
      <point x="550" y="966"/>
      <point x="466" y="1015" type="curve" smooth="yes"/>
      <point x="458" y="1020"/>
      <point x="448" y="1022"/>
      <point x="438" y="1022" type="curve" smooth="yes"/>
      <point x="406" y="1022"/>
      <point x="373" y="1006"/>
      <point x="352" y="990" type="curve" smooth="yes"/>
      <point x="299" y="949"/>
      <point x="263" y="925"/>
      <point x="214" y="883" type="curve" smooth="yes"/>
      <point x="206" y="876"/>
      <point x="201" y="868"/>
      <point x="201" y="860" type="curve" smooth="yes"/>
      <point x="201" y="840"/>
      <point x="230" y="838"/>
      <point x="243" y="838" type="curve" smooth="yes"/>
      <point x="270" y="838"/>
      <point x="300" y="847"/>
    </contour>
  </outline>
</glyph>
<glyph name="acircumflex" format="1">
  <advance width="582"/>
  <unicode hex="00E2"/>
  <outline>
    <contour>
      <point x="360" y="472" type="curve" smooth="yes"/>
      <point x="339" y="476"/>
      <point x="319" y="478"/>
      <point x="300" y="478" type="curve" smooth="yes"/>
      <point x="217" y="478"/>
      <point x="145" y="426"/>
      <point x="99" y="371" type="curve" smooth="yes"/>
      <point x="48" y="309"/>
      <point x="25" y="226"/>
      <point x="25" y="150" type="curve" smooth="yes"/>
      <point x="25" y="54"/>
      <point x="89" y="-8"/>
      <point x="182" y="-8" type="curve" smooth="yes"/>
      <point x="274" y="-8"/>
      <point x="326" y="33"/>
      <point x="361" y="90" type="curve"/>
      <point x="372" y="35"/>
      <point x="394" y="-3"/>
      <point x="432" y="-3" type="curve" smooth="yes"/>
      <point x="537" y="-3"/>
      <point x="662" y="111"/>
      <point x="662" y="198" type="curve" smooth="yes"/>
      <point x="662" y="221"/>
      <point x="654" y="236"/>
      <point x="644" y="236" type="curve" smooth="yes"/>
      <point x="626" y="236"/>
      <point x="533" y="112"/>
      <point x="492" y="112" type="curve" smooth="yes"/>
      <point x="477" y="112"/>
      <point x="471" y="148"/>
      <point x="471" y="194" type="curve" smooth="yes"/>
      <point x="471" y="245"/>
      <point x="472" y="286"/>
      <point x="479" y="324" type="curve"/>
      <point x="494" y="349"/>
      <point x="507" y="373"/>
      <point x="520" y="403" type="curve"/>
      <point x="520" y="436"/>
      <point x="465" y="491"/>
      <point x="424" y="491" type="curve" smooth="yes"/>
      <point x="410" y="491"/>
      <point x="399" y="480"/>
      <point x="390" y="462" type="curve"/>
      <point x="383" y="466"/>
      <point x="373" y="469"/>
    </contour>
    <contour>
      <point x="253" y="589" type="curve" smooth="yes"/>
      <point x="283" y="614"/>
      <point x="308" y="641"/>
      <point x="332" y="668" type="curve"/>
      <point x="365" y="631"/>
      <point x="387" y="594"/>
      <point x="430" y="547" type="curve" smooth="yes"/>
      <point x="437" y="540"/>
      <point x="450" y="536"/>
      <point x="463" y="536" type="curve" smooth="yes"/>
      <point x="504" y="536"/>
      <point x="559" y="562"/>
      <point x="559" y="586" type="curve" smooth="yes"/>
      <point x="559" y="589"/>
      <point x="557" y="594"/>
      <point x="553" y="598" type="curve" smooth="yes"/>
      <point x="489" y="670"/>
      <point x="468" y="722"/>
      <point x="390" y="776" type="curve" smooth="yes"/>
      <point x="382" y="781"/>
      <point x="372" y="783"/>
      <point x="362" y="783" type="curve" smooth="yes"/>
      <point x="330" y="783"/>
      <point x="293" y="765"/>
      <point x="276" y="745" type="curve" smooth="yes"/>
      <point x="234" y="695"/>
      <point x="197" y="650"/>
      <point x="148" y="608" type="curve" smooth="yes"/>
      <point x="140" y="601"/>
      <point x="135" y="593"/>
      <point x="135" y="585" type="curve" smooth="yes"/>
      <point x="135" y="565"/>
      <point x="164" y="563"/>
      <point x="177" y="563" type="curve" smooth="yes"/>
      <point x="204" y="563"/>
      <point x="234" y="572"/>
    </contour>
    <contour>
      <point x="229" y="99" type="curve" smooth="yes"/>
      <point x="184" y="99"/>
      <point x="172" y="137"/>
      <point x="172" y="176" type="curve" smooth="yes"/>
      <point x="172" y="311"/>
      <point x="276" y="392"/>
      <point x="373" y="410" type="curve"/>
      <point x="358" y="346"/>
      <point x="354" y="259"/>
      <point x="353" y="218" type="curve"/>
      <point x="329" y="133"/>
      <point x="275" y="99"/>
    </contour>
  </outline>
</glyph>
<glyph name="atilde" format="1">
  <advance width="582"/>
  <unicode hex="00E3"/>
  <outline>
    <contour>
      <point x="360" y="472" type="curve" smooth="yes"/>
      <point x="339" y="476"/>
      <point x="319" y="478"/>
      <point x="300" y="478" type="curve" smooth="yes"/>
      <point x="217" y="478"/>
      <point x="145" y="426"/>
      <point x="99" y="371" type="curve" smooth="yes"/>
      <point x="48" y="309"/>
      <point x="25" y="226"/>
      <point x="25" y="150" type="curve" smooth="yes"/>
      <point x="25" y="54"/>
      <point x="89" y="-8"/>
      <point x="182" y="-8" type="curve" smooth="yes"/>
      <point x="274" y="-8"/>
      <point x="326" y="33"/>
      <point x="361" y="90" type="curve"/>
      <point x="372" y="35"/>
      <point x="394" y="-3"/>
      <point x="432" y="-3" type="curve" smooth="yes"/>
      <point x="537" y="-3"/>
      <point x="662" y="111"/>
      <point x="662" y="198" type="curve" smooth="yes"/>
      <point x="662" y="221"/>
      <point x="654" y="236"/>
      <point x="644" y="236" type="curve" smooth="yes"/>
      <point x="626" y="236"/>
      <point x="533" y="112"/>
      <point x="492" y="112" type="curve" smooth="yes"/>
      <point x="477" y="112"/>
      <point x="471" y="148"/>
      <point x="471" y="194" type="curve" smooth="yes"/>
      <point x="471" y="245"/>
      <point x="472" y="286"/>
      <point x="479" y="324" type="curve"/>
      <point x="494" y="349"/>
      <point x="507" y="373"/>
      <point x="520" y="403" type="curve"/>
      <point x="520" y="436"/>
      <point x="465" y="491"/>
      <point x="424" y="491" type="curve" smooth="yes"/>
      <point x="410" y="491"/>
      <point x="399" y="480"/>
      <point x="390" y="462" type="curve"/>
      <point x="383" y="466"/>
      <point x="373" y="469"/>
    </contour>
    <contour>
      <point x="207" y="632" type="curve" smooth="yes"/>
      <point x="220" y="655"/>
      <point x="233" y="665"/>
      <point x="244" y="665" type="curve" smooth="yes"/>
      <point x="316" y="665"/>
      <point x="355" y="564"/>
      <point x="438" y="564" type="curve" smooth="yes"/>
      <point x="504" y="564"/>
      <point x="556" y="593"/>
      <point x="589" y="662" type="curve"/>
      <point x="592" y="664"/>
      <point x="592" y="667"/>
      <point x="592" y="670" type="curve" smooth="yes"/>
      <point x="592" y="683"/>
      <point x="578" y="688"/>
      <point x="559" y="688" type="curve" smooth="yes"/>
      <point x="503" y="688"/>
      <point x="491" y="648"/>
      <point x="468" y="648" type="curve" smooth="yes"/>
      <point x="406" y="648"/>
      <point x="360" y="757"/>
      <point x="279" y="757" type="curve" smooth="yes"/>
      <point x="234" y="757"/>
      <point x="167" y="733"/>
      <point x="110" y="663" type="curve" smooth="yes"/>
      <point x="101" y="652"/>
      <point x="91" y="638"/>
      <point x="92" y="625" type="curve" smooth="yes"/>
      <point x="92" y="616"/>
      <point x="97" y="603"/>
      <point x="112" y="603" type="curve" smooth="yes"/>
      <point x="139" y="603"/>
      <point x="194" y="611"/>
    </contour>
    <contour>
      <point x="229" y="99" type="curve" smooth="yes"/>
      <point x="184" y="99"/>
      <point x="172" y="137"/>
      <point x="172" y="176" type="curve" smooth="yes"/>
      <point x="172" y="311"/>
      <point x="276" y="392"/>
      <point x="373" y="410" type="curve"/>
      <point x="358" y="346"/>
      <point x="354" y="259"/>
      <point x="353" y="218" type="curve"/>
      <point x="329" y="133"/>
      <point x="275" y="99"/>
    </contour>
  </outline>
</glyph>
<glyph name="eacute" format="1">
  <advance width="418"/>
  <unicode hex="00E9"/>
  <outline>
    <contour>
      <point x="263" y="109" type="curve" smooth="yes"/>
      <point x="226" y="109"/>
      <point x="167" y="121"/>
      <point x="167" y="176" type="curve" smooth="yes"/>
      <point x="167" y="201" type="line"/>
      <point x="273" y="250"/>
      <point x="401" y="266"/>
      <point x="401" y="384" type="curve" smooth="yes"/>
      <point x="401" y="440"/>
      <point x="360" y="480"/>
      <point x="285" y="480" type="curve" smooth="yes"/>
      <point x="146" y="480"/>
      <point x="20" y="341"/>
      <point x="20" y="150" type="curve" smooth="yes"/>
      <point x="20" y="41"/>
      <point x="107" y="-6"/>
      <point x="197" y="-6" type="curve" smooth="yes"/>
      <point x="426" y="-6"/>
      <point x="498" y="142"/>
      <point x="498" y="198" type="curve" smooth="yes"/>
      <point x="498" y="221"/>
      <point x="494" y="233"/>
      <point x="484" y="233" type="curve" smooth="yes"/>
      <point x="461" y="233"/>
      <point x="395" y="109"/>
    </contour>
    <contour>
      <point x="536" y="741" type="curve" smooth="yes"/>
      <point x="544" y="754"/>
      <point x="552" y="770"/>
      <point x="552" y="775" type="curve" smooth="yes"/>
      <point x="552" y="785"/>
      <point x="530" y="791"/>
      <point x="505" y="791" type="curve" smooth="yes"/>
      <point x="478" y="791"/>
      <point x="446" y="784"/>
      <point x="438" y="768" type="curve" smooth="yes"/>
      <point x="404" y="703"/>
      <point x="375" y="618"/>
      <point x="290" y="597" type="curve"/>
      <point x="282" y="596"/>
      <point x="250" y="586"/>
      <point x="250" y="569" type="curve" smooth="yes"/>
      <point x="250" y="552"/>
      <point x="279" y="550"/>
      <point x="290" y="550" type="curve" smooth="yes"/>
      <point x="423" y="550"/>
      <point x="476" y="639"/>
    </contour>
    <contour>
      <point x="246" y="391" type="curve" smooth="yes"/>
      <point x="267" y="391"/>
      <point x="277" y="381"/>
      <point x="277" y="366" type="curve" smooth="yes"/>
      <point x="277" y="325"/>
      <point x="230" y="307"/>
      <point x="174" y="270" type="curve"/>
      <point x="184" y="333"/>
      <point x="206" y="391"/>
    </contour>
  </outline>
</glyph>
<glyph name="eth" format="1">
  <advance width="586"/>
  <unicode hex="00F0"/>
  <outline>
    <contour>
      <point x="402" y="613" type="curve" smooth="yes"/>
      <point x="381" y="617"/>
      <point x="361" y="619"/>
      <point x="343" y="619" type="curve" smooth="yes"/>
      <point x="297" y="619"/>
      <point x="253" y="591"/>
      <point x="253" y="552" type="curve" smooth="yes"/>
      <point x="253" y="543"/>
      <point x="329" y="535"/>
      <point x="396" y="524" type="curve"/>
      <point x="391" y="505"/>
      <point x="387" y="486"/>
      <point x="383" y="466" type="curve"/>
      <point x="360" y="472" type="line" smooth="yes"/>
      <point x="340" y="477"/>
      <point x="318" y="478"/>
      <point x="300" y="478" type="curve" smooth="yes"/>
      <point x="217" y="478"/>
      <point x="145" y="426"/>
      <point x="99" y="371" type="curve" smooth="yes"/>
      <point x="48" y="309"/>
      <point x="25" y="226"/>
      <point x="25" y="150" type="curve" smooth="yes"/>
      <point x="25" y="54"/>
      <point x="89" y="-8"/>
      <point x="182" y="-8" type="curve" smooth="yes"/>
      <point x="476" y="-8"/>
      <point x="515" y="213"/>
      <point x="516" y="484" type="curve"/>
      <point x="524" y="496" type="line"/>
      <point x="560" y="488"/>
      <point x="591" y="482"/>
      <point x="598" y="482" type="curve" smooth="yes"/>
      <point x="624" y="482"/>
      <point x="676" y="526"/>
      <point x="676" y="551" type="curve" smooth="yes"/>
      <point x="676" y="569"/>
      <point x="650" y="564"/>
      <point x="575" y="580" type="curve"/>
      <point x="584" y="599"/>
      <point x="590" y="623"/>
      <point x="590" y="650" type="curve" smooth="yes"/>
      <point x="590" y="673"/>
      <point x="557" y="746"/>
      <point x="515" y="746" type="curve" smooth="yes"/>
      <point x="479" y="746"/>
      <point x="451" y="693"/>
      <point x="421" y="609" type="curve"/>
      <point x="414" y="611"/>
      <point x="407" y="612"/>
    </contour>
    <contour>
      <point x="229" y="99" type="curve" smooth="yes"/>
      <point x="184" y="99"/>
      <point x="172" y="137"/>
      <point x="172" y="176" type="curve" smooth="yes"/>
      <point x="172" y="310"/>
      <point x="275" y="392"/>
      <point x="372" y="410" type="curve"/>
      <point x="355" y="307"/>
      <point x="365" y="99"/>
    </contour>
  </outline>
</glyph>
<glyph name="ntilde" format="1">
  <advance width="537"/>
  <unicode hex="00F1"/>
  <outline>
    <contour>
      <point x="396" y="-3" type="curve" smooth="yes"/>
      <point x="505" y="-3"/>
      <point x="617" y="111"/>
      <point x="617" y="198" type="curve" smooth="yes"/>
      <point x="617" y="221"/>
      <point x="613" y="233"/>
      <point x="603" y="233" type="curve" smooth="yes"/>
      <point x="584" y="233"/>
      <point x="495" y="112"/>
      <point x="456" y="112" type="curve" smooth="yes"/>
      <point x="448" y="112"/>
      <point x="445" y="118"/>
      <point x="445" y="129" type="curve" smooth="yes"/>
      <point x="445" y="168"/>
      <point x="487" y="267"/>
      <point x="487" y="364" type="curve" smooth="yes"/>
      <point x="487" y="435"/>
      <point x="439" y="479"/>
      <point x="349" y="479" type="curve" smooth="yes"/>
      <point x="296" y="479"/>
      <point x="258" y="458"/>
      <point x="231" y="430" type="curve"/>
      <point x="218" y="460"/>
      <point x="191" y="499"/>
      <point x="163" y="499" type="curve" smooth="yes"/>
      <point x="150" y="499"/>
      <point x="137" y="491"/>
      <point x="124" y="471" type="curve" smooth="yes"/>
      <point x="46" y="353"/>
      <point x="45" y="252"/>
      <point x="45" y="82" type="curve" smooth="yes"/>
      <point x="45" y="21"/>
      <point x="56" y="-16"/>
      <point x="89" y="-16" type="curve" smooth="yes"/>
      <point x="96" y="-16"/>
      <point x="104" y="-14"/>
      <point x="112" y="-11" type="curve" smooth="yes"/>
      <point x="179" y="15"/>
      <point x="197" y="35"/>
      <point x="197" y="60" type="curve" smooth="yes"/>
      <point x="197" y="88"/>
      <point x="176" y="122"/>
      <point x="176" y="176" type="curve" smooth="yes"/>
      <point x="176" y="183" type="line"/>
      <point x="192" y="264"/>
      <point x="249" y="372"/>
      <point x="302" y="372" type="curve" smooth="yes"/>
      <point x="337" y="372"/>
      <point x="347" y="357"/>
      <point x="347" y="336" type="curve" smooth="yes"/>
      <point x="347" y="277"/>
      <point x="316" y="230"/>
      <point x="316" y="125" type="curve" smooth="yes"/>
      <point x="316" y="58"/>
      <point x="333" y="-3"/>
    </contour>
    <contour>
      <point x="239" y="632" type="curve" smooth="yes"/>
      <point x="252" y="655"/>
      <point x="265" y="665"/>
      <point x="276" y="665" type="curve" smooth="yes"/>
      <point x="348" y="665"/>
      <point x="387" y="564"/>
      <point x="470" y="564" type="curve" smooth="yes"/>
      <point x="536" y="564"/>
      <point x="588" y="593"/>
      <point x="621" y="662" type="curve"/>
      <point x="624" y="664"/>
      <point x="624" y="667"/>
      <point x="624" y="670" type="curve" smooth="yes"/>
      <point x="624" y="683"/>
      <point x="610" y="688"/>
      <point x="591" y="688" type="curve" smooth="yes"/>
      <point x="535" y="688"/>
      <point x="523" y="648"/>
      <point x="500" y="648" type="curve" smooth="yes"/>
      <point x="438" y="648"/>
      <point x="392" y="757"/>
      <point x="311" y="757" type="curve" smooth="yes"/>
      <point x="266" y="757"/>
      <point x="199" y="733"/>
      <point x="142" y="663" type="curve" smooth="yes"/>
      <point x="133" y="652"/>
      <point x="123" y="638"/>
      <point x="124" y="625" type="curve" smooth="yes"/>
      <point x="124" y="616"/>
      <point x="129" y="603"/>
      <point x="144" y="603" type="curve" smooth="yes"/>
      <point x="171" y="603"/>
      <point x="226" y="611"/>
    </contour>
  </outline>
</glyph>
<glyph name="oacute" format="1">
  <advance width="543"/>
  <unicode hex="00F3"/>
  <outline>
    <contour>
      <point x="299" y="480" type="curve" smooth="yes"/>
      <point x="130" y="480"/>
      <point x="25" y="340"/>
      <point x="25" y="189" type="curve" smooth="yes"/>
      <point x="25" y="88"/>
      <point x="90" y="-8"/>
      <point x="242" y="-8" type="curve" smooth="yes"/>
      <point x="321" y="-8"/>
      <point x="387" y="31"/>
      <point x="434" y="85" type="curve"/>
      <point x="454" y="81"/>
      <point x="475" y="79"/>
      <point x="498" y="79" type="curve" smooth="yes"/>
      <point x="565" y="79"/>
      <point x="623" y="119"/>
      <point x="623" y="198" type="curve" smooth="yes"/>
      <point x="623" y="221"/>
      <point x="619" y="234"/>
      <point x="609" y="234" type="curve" smooth="yes"/>
      <point x="584" y="234"/>
      <point x="570" y="173"/>
      <point x="495" y="173" type="curve" smooth="yes"/>
      <point x="489" y="173" type="line"/>
      <point x="504" y="208"/>
      <point x="512" y="244"/>
      <point x="512" y="277" type="curve" smooth="yes"/>
      <point x="512" y="339"/>
      <point x="480" y="386"/>
      <point x="415" y="386" type="curve" smooth="yes"/>
      <point x="329" y="386"/>
      <point x="283" y="317"/>
      <point x="283" y="258" type="curve" smooth="yes"/>
      <point x="283" y="198"/>
      <point x="309" y="150"/>
      <point x="354" y="119" type="curve"/>
      <point x="333" y="106"/>
      <point x="308" y="99"/>
      <point x="279" y="99" type="curve" smooth="yes"/>
      <point x="207" y="99"/>
      <point x="172" y="146"/>
      <point x="172" y="205" type="curve" smooth="yes"/>
      <point x="172" y="322"/>
      <point x="255" y="405"/>
      <point x="370" y="405" type="curve" smooth="yes"/>
      <point x="428" y="405"/>
      <point x="448" y="412"/>
      <point x="448" y="421" type="curve" smooth="yes"/>
      <point x="448" y="450"/>
      <point x="373" y="480"/>
    </contour>
    <contour>
      <point x="564" y="741" type="curve" smooth="yes"/>
      <point x="572" y="754"/>
      <point x="580" y="770"/>
      <point x="580" y="775" type="curve" smooth="yes"/>
      <point x="580" y="785"/>
      <point x="558" y="791"/>
      <point x="533" y="791" type="curve" smooth="yes"/>
      <point x="506" y="791"/>
      <point x="474" y="784"/>
      <point x="466" y="768" type="curve" smooth="yes"/>
      <point x="432" y="703"/>
      <point x="403" y="618"/>
      <point x="318" y="597" type="curve"/>
      <point x="310" y="596"/>
      <point x="278" y="586"/>
      <point x="278" y="569" type="curve" smooth="yes"/>
      <point x="278" y="552"/>
      <point x="307" y="550"/>
      <point x="318" y="550" type="curve" smooth="yes"/>
      <point x="451" y="550"/>
      <point x="504" y="639"/>
    </contour>
    <contour>
      <point x="399" y="267" type="curve" smooth="yes"/>
      <point x="399" y="283"/>
      <point x="408" y="305"/>
      <point x="420" y="305" type="curve" smooth="yes"/>
      <point x="436" y="305"/>
      <point x="442" y="289"/>
      <point x="442" y="272" type="curve" smooth="yes"/>
      <point x="442" y="252"/>
      <point x="437" y="226"/>
      <point x="425" y="201" type="curve"/>
      <point x="408" y="218"/>
      <point x="399" y="241"/>
    </contour>
  </outline>
</glyph>
<glyph name="ugrave" format="1">
  <advance width="533"/>
  <unicode hex="00F9"/>
  <outline>
    <contour>
      <point x="170" y="486" type="curve" smooth="yes"/>
      <point x="149" y="486"/>
      <point x="105" y="481"/>
      <point x="81" y="462" type="curve"/>
      <point x="52" y="216" type="line"/>
      <point x="30" y="174"/>
      <point x="20" y="148"/>
      <point x="20" y="114" type="curve" smooth="yes"/>
      <point x="20" y="32"/>
      <point x="84" y="-5"/>
      <point x="174" y="-5" type="curve" smooth="yes"/>
      <point x="247" y="-5"/>
      <point x="292" y="36"/>
      <point x="319" y="85" type="curve"/>
      <point x="324" y="35"/>
      <point x="342" y="-3"/>
      <point x="392" y="-3" type="curve" smooth="yes"/>
      <point x="501" y="-3"/>
      <point x="613" y="111"/>
      <point x="613" y="198" type="curve" smooth="yes"/>
      <point x="613" y="221"/>
      <point x="609" y="233"/>
      <point x="599" y="233" type="curve" smooth="yes"/>
      <point x="580" y="233"/>
      <point x="491" y="112"/>
      <point x="452" y="112" type="curve" smooth="yes"/>
      <point x="444" y="112"/>
      <point x="441" y="118"/>
      <point x="441" y="129" type="curve" smooth="yes"/>
      <point x="441" y="199"/>
      <point x="484" y="320"/>
      <point x="484" y="424" type="curve" smooth="yes"/>
      <point x="484" y="465"/>
      <point x="479" y="489"/>
      <point x="445" y="489" type="curve" smooth="yes"/>
      <point x="373" y="489"/>
      <point x="341" y="464"/>
      <point x="341" y="422" type="curve" smooth="yes"/>
      <point x="341" y="406"/>
      <point x="341" y="356"/>
      <point x="344" y="335" type="curve"/>
      <point x="333" y="253"/>
      <point x="295" y="102"/>
      <point x="221" y="102" type="curve" smooth="yes"/>
      <point x="186" y="102"/>
      <point x="176" y="117"/>
      <point x="176" y="138" type="curve" smooth="yes"/>
      <point x="176" y="232"/>
      <point x="223" y="310"/>
      <point x="223" y="389" type="curve" smooth="yes"/>
      <point x="223" y="440"/>
      <point x="217" y="486"/>
    </contour>
    <contour>
      <point x="260" y="555" type="curve" smooth="yes"/>
      <point x="271" y="555"/>
      <point x="280" y="557"/>
      <point x="280" y="562" type="curve" smooth="yes"/>
      <point x="280" y="573"/>
      <point x="274" y="578"/>
      <point x="268" y="582" type="curve" smooth="yes"/>
      <point x="210" y="621"/>
      <point x="181" y="676"/>
      <point x="175" y="751" type="curve" smooth="yes"/>
      <point x="172" y="780"/>
      <point x="134" y="787"/>
      <point x="109" y="787" type="curve" smooth="yes"/>
      <point x="69" y="787"/>
      <point x="64" y="770"/>
      <point x="64" y="738" type="curve" smooth="yes"/>
      <point x="64" y="614"/>
      <point x="166" y="555"/>
    </contour>
  </outline>
</glyph>
<glyph name="uacute" format="1">
  <advance width="533"/>
  <unicode hex="00FA"/>
  <outline>
    <contour>
      <point x="170" y="486" type="curve" smooth="yes"/>
      <point x="149" y="486"/>
      <point x="105" y="481"/>
      <point x="81" y="462" type="curve"/>
      <point x="52" y="216" type="line"/>
      <point x="30" y="174"/>
      <point x="20" y="148"/>
      <point x="20" y="114" type="curve" smooth="yes"/>
      <point x="20" y="32"/>
      <point x="84" y="-5"/>
      <point x="174" y="-5" type="curve" smooth="yes"/>
      <point x="247" y="-5"/>
      <point x="292" y="36"/>
      <point x="319" y="85" type="curve"/>
      <point x="324" y="35"/>
      <point x="342" y="-3"/>
      <point x="392" y="-3" type="curve" smooth="yes"/>
      <point x="501" y="-3"/>
      <point x="613" y="111"/>
      <point x="613" y="198" type="curve" smooth="yes"/>
      <point x="613" y="221"/>
      <point x="609" y="233"/>
      <point x="599" y="233" type="curve" smooth="yes"/>
      <point x="580" y="233"/>
      <point x="491" y="112"/>
      <point x="452" y="112" type="curve" smooth="yes"/>
      <point x="444" y="112"/>
      <point x="441" y="118"/>
      <point x="441" y="129" type="curve" smooth="yes"/>
      <point x="441" y="199"/>
      <point x="484" y="320"/>
      <point x="484" y="424" type="curve" smooth="yes"/>
      <point x="484" y="465"/>
      <point x="479" y="489"/>
      <point x="445" y="489" type="curve" smooth="yes"/>
      <point x="373" y="489"/>
      <point x="341" y="464"/>
      <point x="341" y="422" type="curve" smooth="yes"/>
      <point x="341" y="406"/>
      <point x="341" y="356"/>
      <point x="344" y="335" type="curve"/>
      <point x="333" y="253"/>
      <point x="295" y="102"/>
      <point x="221" y="102" type="curve" smooth="yes"/>
      <point x="186" y="102"/>
      <point x="176" y="117"/>
      <point x="176" y="138" type="curve" smooth="yes"/>
      <point x="176" y="232"/>
      <point x="223" y="310"/>
      <point x="223" y="389" type="curve" smooth="yes"/>
      <point x="223" y="440"/>
      <point x="217" y="486"/>
    </contour>
    <contour>
      <point x="549" y="741" type="curve" smooth="yes"/>
      <point x="557" y="754"/>
      <point x="565" y="770"/>
      <point x="565" y="775" type="curve" smooth="yes"/>
      <point x="565" y="785"/>
      <point x="543" y="791"/>
      <point x="518" y="791" type="curve" smooth="yes"/>
      <point x="491" y="791"/>
      <point x="459" y="784"/>
      <point x="451" y="768" type="curve" smooth="yes"/>
      <point x="417" y="703"/>
      <point x="388" y="618"/>
      <point x="303" y="597" type="curve"/>
      <point x="295" y="596"/>
      <point x="263" y="586"/>
      <point x="263" y="569" type="curve" smooth="yes"/>
      <point x="263" y="552"/>
      <point x="292" y="550"/>
      <point x="303" y="550" type="curve" smooth="yes"/>
      <point x="436" y="550"/>
      <point x="489" y="639"/>
    </contour>
  </outline>
</glyph>
<glyph name="dotlessi" format="1">
  <advance width="291"/>
  <unicode hex="0131"/>
  <outline>
    <contour>
      <point x="161" y="475" type="move" name="topdotlessi"/>
    </contour>
    <contour>
      <point x="150" y="-3" type="curve" smooth="yes"/>
      <point x="259" y="-3"/>
      <point x="371" y="111"/>
      <point x="371" y="198" type="curve" smooth="yes"/>
      <point x="371" y="221"/>
      <point x="367" y="233"/>
      <point x="357" y="233" type="curve" smooth="yes"/>
      <point x="338" y="233"/>
      <point x="249" y="112"/>
      <point x="210" y="112" type="curve" smooth="yes"/>
      <point x="191" y="112"/>
      <point x="175" y="123"/>
      <point x="175" y="143" type="curve" smooth="yes"/>
      <point x="175" y="197"/>
      <point x="221" y="311"/>
      <point x="223" y="401" type="curve" smooth="yes"/>
      <point x="223" y="424"/>
      <point x="206" y="497"/>
      <point x="164" y="497" type="curve" smooth="yes"/>
      <point x="91" y="497"/>
      <point x="50" y="303"/>
      <point x="50" y="184" type="curve" smooth="yes"/>
      <point x="50" y="82"/>
      <point x="72" y="-3"/>
    </contour>
  </outline>
</glyph>
<glyph name="oe" format="1">
  <advance width="801"/>
  <unicode hex="0153"/>
  <outline>
    <contour>
      <point x="646" y="109" type="curve" smooth="yes"/>
      <point x="613" y="109"/>
      <point x="563" y="118"/>
      <point x="552" y="159" type="curve"/>
      <point x="659" y="213"/>
      <point x="784" y="262"/>
      <point x="784" y="384" type="curve" smooth="yes"/>
      <point x="784" y="440"/>
      <point x="743" y="480"/>
      <point x="668" y="480" type="curve" smooth="yes"/>
      <point x="529" y="480"/>
      <point x="403" y="341"/>
      <point x="403" y="150" type="curve" smooth="yes"/>
      <point x="403" y="142"/>
      <point x="403" y="135"/>
      <point x="404" y="128" type="curve"/>
      <point x="368" y="110"/>
      <point x="327" y="99"/>
      <point x="279" y="99" type="curve" smooth="yes"/>
      <point x="207" y="99"/>
      <point x="172" y="146"/>
      <point x="172" y="205" type="curve" smooth="yes"/>
      <point x="172" y="301"/>
      <point x="216" y="390"/>
      <point x="289" y="390" type="curve" smooth="yes"/>
      <point x="346" y="390"/>
      <point x="366" y="311"/>
      <point x="398" y="311" type="curve" smooth="yes"/>
      <point x="414" y="311"/>
      <point x="424" y="337"/>
      <point x="424" y="388" type="curve" smooth="yes"/>
      <point x="424" y="435"/>
      <point x="386" y="480"/>
      <point x="299" y="480" type="curve" smooth="yes"/>
      <point x="130" y="480"/>
      <point x="25" y="340"/>
      <point x="25" y="189" type="curve" smooth="yes"/>
      <point x="25" y="88"/>
      <point x="90" y="-8"/>
      <point x="242" y="-8" type="curve" smooth="yes"/>
      <point x="320" y="-8"/>
      <point x="378" y="17"/>
      <point x="432" y="56" type="curve"/>
      <point x="465" y="13"/>
      <point x="522" y="-6"/>
      <point x="580" y="-6" type="curve" smooth="yes"/>
      <point x="809" y="-6"/>
      <point x="881" y="142"/>
      <point x="881" y="198" type="curve" smooth="yes"/>
      <point x="881" y="221"/>
      <point x="877" y="233"/>
      <point x="867" y="233" type="curve" smooth="yes"/>
      <point x="844" y="233"/>
      <point x="778" y="109"/>
    </contour>
    <contour>
      <point x="629" y="391" type="curve" smooth="yes"/>
      <point x="650" y="391"/>
      <point x="660" y="381"/>
      <point x="660" y="366" type="curve" smooth="yes"/>
      <point x="660" y="324"/>
      <point x="610" y="278"/>
      <point x="552" y="233" type="curve"/>
      <point x="559" y="308"/>
      <point x="581" y="391"/>
    </contour>
  </outline>
</glyph>
<glyph name="circumflex" format="1">
  <advance width="500"/>
  <unicode hex="02C6"/>
  <outline>
    <contour>
      <point x="219" y="475" type="move" name="_top"/>
    </contour>
    <contour>
      <point x="156" y="589" type="curve" smooth="yes"/>
      <point x="186" y="614"/>
      <point x="211" y="641"/>
      <point x="235" y="668" type="curve"/>
      <point x="268" y="631"/>
      <point x="290" y="594"/>
      <point x="333" y="547" type="curve" smooth="yes"/>
      <point x="340" y="540"/>
      <point x="353" y="536"/>
      <point x="366" y="536" type="curve" smooth="yes"/>
      <point x="407" y="536"/>
      <point x="462" y="562"/>
      <point x="462" y="586" type="curve" smooth="yes"/>
      <point x="462" y="589"/>
      <point x="460" y="594"/>
      <point x="456" y="598" type="curve" smooth="yes"/>
      <point x="392" y="670"/>
      <point x="371" y="722"/>
      <point x="293" y="776" type="curve" smooth="yes"/>
      <point x="285" y="781"/>
      <point x="275" y="783"/>
      <point x="265" y="783" type="curve" smooth="yes"/>
      <point x="233" y="783"/>
      <point x="196" y="765"/>
      <point x="179" y="745" type="curve" smooth="yes"/>
      <point x="137" y="695"/>
      <point x="100" y="650"/>
      <point x="51" y="608" type="curve" smooth="yes"/>
      <point x="43" y="601"/>
      <point x="38" y="593"/>
      <point x="38" y="585" type="curve" smooth="yes"/>
      <point x="38" y="565"/>
      <point x="67" y="563"/>
      <point x="80" y="563" type="curve" smooth="yes"/>
      <point x="107" y="563"/>
      <point x="137" y="572"/>
    </contour>
  </outline>
</glyph>
<glyph name="ring" format="1">
  <advance width="500"/>
  <unicode hex="02DA"/>
  <outline>
    <contour>
      <point x="213" y="475" type="move" name="_top"/>
    </contour>
    <contour>
      <point x="223" y="812" type="line" smooth="yes"/>
      <point x="154" y="812"/>
      <point x="96" y="769"/>
      <point x="96" y="701" type="curve" smooth="yes"/>
      <point x="96" y="622"/>
      <point x="164" y="570"/>
      <point x="238" y="570" type="curve" smooth="yes"/>
      <point x="303" y="570"/>
      <point x="404" y="615"/>
      <point x="404" y="686" type="curve" smooth="yes"/>
      <point x="404" y="748"/>
      <point x="314" y="815"/>
      <point x="252" y="815" type="curve" smooth="yes"/>
      <point x="246" y="815"/>
      <point x="240" y="814"/>
      <point x="234" y="812" type="curve"/>
    </contour>
    <contour>
      <point x="306" y="675" type="curve" smooth="yes"/>
      <point x="306" y="649"/>
      <point x="285" y="639"/>
      <point x="264" y="639" type="curve" smooth="yes"/>
      <point x="220" y="639"/>
      <point x="194" y="677"/>
      <point x="194" y="716" type="curve" smooth="yes"/>
      <point x="194" y="727"/>
      <point x="196" y="736"/>
      <point x="201" y="744" type="curve"/>
      <point x="211" y="741"/>
      <point x="222" y="740"/>
      <point x="233" y="740" type="curve" smooth="yes"/>
      <point x="237" y="740"/>
      <point x="241" y="740"/>
      <point x="245" y="741" type="curve"/>
      <point x="273" y="729"/>
      <point x="306" y="703"/>
    </contour>
  </outline>
</glyph>
<glyph name="endash" format="1">
  <advance width="440"/>
  <unicode hex="2013"/>
  <outline>
    <contour>
      <point x="53" y="358" type="line" smooth="yes"/>
      <point x="17" y="358"/>
      <point x="-15" y="315"/>
      <point x="-15" y="281" type="curve" smooth="yes"/>
      <point x="-15" y="274"/>
      <point x="-12" y="272"/>
      <point x="-9" y="272" type="curve" smooth="yes"/>
      <point x="-9" y="272"/>
      <point x="97" y="278"/>
      <point x="131" y="278" type="curve" smooth="yes"/>
      <point x="175" y="278"/>
      <point x="429" y="272"/>
      <point x="429" y="272" type="curve"/>
      <point x="451" y="272"/>
      <point x="496" y="319"/>
      <point x="496" y="341" type="curve" smooth="yes"/>
      <point x="496" y="354"/>
      <point x="492" y="358"/>
      <point x="484" y="358" type="curve" smooth="yes"/>
    </contour>
  </outline>
</glyph>
<glyph name="emdash" format="1">
  <advance width="692"/>
  <unicode hex="2014"/>
  <outline>
    <contour>
      <point x="53" y="358" type="line" smooth="yes"/>
      <point x="17" y="358"/>
      <point x="-15" y="315"/>
      <point x="-15" y="281" type="curve" smooth="yes"/>
      <point x="-15" y="274"/>
      <point x="-12" y="272"/>
      <point x="-9" y="272" type="curve" smooth="yes"/>
      <point x="-9" y="272"/>
      <point x="231" y="278"/>
      <point x="265" y="278" type="curve" smooth="yes"/>
      <point x="309" y="278"/>
      <point x="681" y="272"/>
      <point x="681" y="272" type="curve"/>
      <point x="703" y="272"/>
      <point x="748" y="319"/>
      <point x="748" y="341" type="curve" smooth="yes"/>
      <point x="748" y="354"/>
      <point x="744" y="358"/>
      <point x="736" y="358" type="curve" smooth="yes"/>
    </contour>
  </outline>
</glyph>
<glyph name="quotedblright" format="1">
  <advance width="547"/>
  <unicode hex="201D"/>
  <outline>
    <contour>
      <point x="320" y="685" type="curve" smooth="yes"/>
      <point x="320" y="661"/>
      <point x="325" y="634"/>
      <point x="354" y="615" type="curve"/>
      <point x="336" y="564"/>
      <point x="271" y="569"/>
      <point x="271" y="531" type="curve" smooth="yes"/>
      <point x="271" y="510"/>
      <point x="299" y="504"/>
      <point x="317" y="504" type="curve" smooth="yes"/>
      <point x="415" y="504"/>
      <point x="497" y="617"/>
      <point x="497" y="702" type="curve" smooth="yes"/>
      <point x="497" y="752"/>
      <point x="465" y="770"/>
      <point x="429" y="770" type="curve" smooth="yes"/>
      <point x="367" y="770"/>
      <point x="320" y="729"/>
    </contour>
    <contour>
      <point x="109" y="675" type="curve" smooth="yes"/>
      <point x="109" y="651"/>
      <point x="114" y="624"/>
      <point x="143" y="605" type="curve"/>
      <point x="125" y="554"/>
      <point x="60" y="559"/>
      <point x="60" y="521" type="curve" smooth="yes"/>
      <point x="60" y="500"/>
      <point x="88" y="494"/>
      <point x="106" y="494" type="curve" smooth="yes"/>
      <point x="206" y="494"/>
      <point x="296" y="619"/>
      <point x="296" y="712" type="curve" smooth="yes"/>
      <point x="296" y="762"/>
      <point x="264" y="780"/>
      <point x="228" y="780" type="curve" smooth="yes"/>
      <point x="166" y="780"/>
      <point x="109" y="738"/>
    </contour>
  </outline>
</glyph>
<glyph name="uni2074" format="1">
  <advance width="354"/>
  <unicode hex="2074"/>
  <outline>
    <contour>
      <point x="241" y="724" type="curve" smooth="yes"/>
      <point x="228" y="701"/>
      <point x="215" y="654"/>
      <point x="203" y="608" type="curve"/>
      <point x="151" y="604" type="line"/>
      <point x="163" y="645"/>
      <point x="184" y="680"/>
      <point x="184" y="714" type="curve" smooth="yes"/>
      <point x="184" y="728"/>
      <point x="177" y="737"/>
      <point x="168" y="737" type="curve" smooth="yes"/>
      <point x="143" y="737"/>
      <point x="88" y="636"/>
      <point x="75" y="583" type="curve"/>
      <point x="80" y="569"/>
      <point x="89" y="557"/>
      <point x="114" y="542" type="curve"/>
      <point x="190" y="549" type="line"/>
      <point x="186" y="529"/>
      <point x="184" y="511"/>
      <point x="184" y="499" type="curve" smooth="yes"/>
      <point x="184" y="462"/>
      <point x="196" y="450"/>
      <point x="235" y="450" type="curve" smooth="yes"/>
      <point x="246" y="450"/>
      <point x="261" y="453"/>
      <point x="261" y="470" type="curve" smooth="yes"/>
      <point x="261" y="493"/>
      <point x="263" y="520"/>
      <point x="266" y="549" type="curve"/>
      <point x="277" y="548"/>
      <point x="292" y="548"/>
      <point x="296" y="548" type="curve" smooth="yes"/>
      <point x="314" y="548"/>
      <point x="334" y="574"/>
      <point x="334" y="590" type="curve" smooth="yes"/>
      <point x="334" y="603"/>
      <point x="326" y="607"/>
      <point x="314" y="607" type="curve" smooth="yes"/>
      <point x="274" y="607" type="line"/>
      <point x="283" y="658"/>
      <point x="293" y="697"/>
      <point x="293" y="734" type="curve" smooth="yes"/>
      <point x="293" y="744"/>
      <point x="290" y="752"/>
      <point x="278" y="752" type="curve" smooth="yes"/>
      <point x="262" y="752"/>
      <point x="248" y="736"/>
    </contour>
  </outline>
</glyph>
